Cascade-Regular.ufo
<glyph name="exclam" format="2">
  <advance width="290"/>
  <unicode hex="0021"/>
  <outline>
    <contour>
      <point x="185" y="180" type="line"/>
      <point x="205" y="700" type="line"/>
      <point x="85" y="700" type="line"/>
      <point x="105" y="180" type="line"/>
    </contour>
    <contour>
      <point x="145" y="-10" type="curve" smooth="yes"/>
      <point x="180" y="-10"/>
      <point x="205" y="15"/>
      <point x="205" y="50" type="curve" smooth="yes"/>
      <point x="205" y="85"/>
      <point x="180" y="110"/>
      <point x="145" y="110" type="curve" smooth="yes"/>
      <point x="110" y="110"/>
      <point x="85" y="85"/>
      <point x="85" y="50" type="curve" smooth="yes"/>
      <point x="85" y="15"/>
      <point x="110" y="-10"/>
    </contour>
  </outline>
</glyph>
<glyph name="numbersign" format="2">
  <advance width="660"/>
  <unicode hex="0023"/>
  <outline>
    <contour>
      <point x="180" y="0" type="line"/>
      <point x="221" y="180" type="line"/>
      <point x="361" y="180" type="line"/>
      <point x="320" y="0" type="line"/>
      <point x="420" y="0" type="line"/>
      <point x="461" y="180" type="line"/>
      <point x="580" y="180" type="line"/>
      <point x="580" y="250" type="line"/>
      <point x="477" y="250" type="line"/>
      <point x="523" y="450" type="line"/>
      <point x="640" y="450" type="line"/>
      <point x="640" y="520" type="line"/>
      <point x="539" y="520" type="line"/>
      <point x="580" y="700" type="line"/>
      <point x="480" y="700" type="line"/>
      <point x="439" y="520" type="line"/>
      <point x="299" y="520" type="line"/>
      <point x="340" y="700" type="line"/>
      <point x="240" y="700" type="line"/>
      <point x="199" y="520" type="line"/>
      <point x="80" y="520" type="line"/>
      <point x="80" y="450" type="line"/>
      <point x="183" y="450" type="line"/>
      <point x="137" y="250" type="line"/>
      <point x="20" y="250" type="line"/>
      <point x="20" y="180" type="line"/>
      <point x="121" y="180" type="line"/>
      <point x="80" y="0" type="line"/>
    </contour>
    <contour>
      <point x="283" y="450" type="line"/>
      <point x="423" y="450" type="line"/>
      <point x="377" y="250" type="line"/>
      <point x="237" y="250" type="line"/>
    </contour>
  </outline>
</glyph>
<glyph name="dollar" format="2">
  <advance width="495"/>
  <unicode hex="0024"/>
  <outline>
    <contour>
      <point x="295" y="-70" type="line"/>
      <point x="295" y="-5" type="line"/>
      <point x="407" y="14"/>
      <point x="465" y="86"/>
      <point x="465" y="190" type="curve" smooth="yes"/>
      <point x="465" y="410"/>
      <point x="140" y="370"/>
      <point x="140" y="530" type="curve" smooth="yes"/>
      <point x="140" y="589"/>
      <point x="190" y="640"/>
      <point x="265" y="640" type="curve" smooth="yes"/>
      <point x="310" y="640"/>
      <point x="345" y="628"/>
      <point x="369" y="617" type="curve"/>
      <point x="383" y="610"/>
      <point x="395" y="603"/>
      <point x="405" y="595" type="curve"/>
      <point x="415" y="595" type="line"/>
      <point x="450" y="655" type="line"/>
      <point x="439" y="663"/>
      <point x="426" y="671"/>
      <point x="411" y="678" type="curve" smooth="yes"/>
      <point x="384" y="690"/>
      <point x="346" y="703"/>
      <point x="295" y="708" type="curve"/>
      <point x="295" y="770" type="line"/>
      <point x="190" y="770" type="line"/>
      <point x="190" y="703" type="line"/>
      <point x="94" y="680"/>
      <point x="40" y="612"/>
      <point x="40" y="520" type="curve" smooth="yes"/>
      <point x="40" y="300"/>
      <point x="365" y="340"/>
      <point x="365" y="180" type="curve" smooth="yes"/>
      <point x="365" y="109"/>
      <point x="316" y="60"/>
      <point x="225" y="60" type="curve" smooth="yes"/>
      <point x="180" y="60"/>
      <point x="143" y="71"/>
      <point x="116" y="82" type="curve"/>
      <point x="101" y="89"/>
      <point x="87" y="96"/>
      <point x="75" y="105" type="curve"/>
      <point x="65" y="105" type="line"/>
      <point x="30" y="45" type="line"/>
      <point x="42" y="38"/>
      <point x="56" y="30"/>
      <point x="72" y="23" type="curve" smooth="yes"/>
      <point x="99" y="11"/>
      <point x="139" y="-2"/>
      <point x="190" y="-7" type="curve"/>
      <point x="190" y="-70" type="line"/>
    </contour>
  </outline>
</glyph>
<glyph name="slash" format="2">
  <advance width="410"/>
  <unicode hex="002F"/>
  <outline>
    <contour>
      <point x="100" y="0" type="line"/>
      <point x="410" y="700" type="line"/>
      <point x="310" y="700" type="line"/>
      <point x="0" y="0" type="line"/>
    </contour>
  </outline>
</glyph>
<glyph name="two" format="2">
  <advance width="500"/>
  <unicode hex="0032"/>
  <outline>
    <contour>
      <point x="455" y="0" type="line"/>
      <point x="455" y="70" type="line"/>
      <point x="130" y="70" type="line"/>
      <point x="130" y="210"/>
      <point x="455" y="320"/>
      <point x="455" y="520" type="curve" smooth="yes"/>
      <point x="455" y="630"/>
      <point x="374" y="710"/>
      <point x="230" y="710" type="curve" smooth="yes"/>
      <point x="165" y="710"/>
      <point x="116" y="697"/>
      <point x="84" y="682" type="curve"/>
      <point x="65" y="674"/>
      <point x="48" y="665"/>
      <point x="35" y="655" type="curve"/>
      <point x="70" y="595" type="line"/>
      <point x="80" y="595" type="line"/>
      <point x="90" y="603"/>
      <point x="102" y="610"/>
      <point x="116" y="617" type="curve"/>
      <point x="140" y="628"/>
      <point x="175" y="640"/>
      <point x="220" y="640" type="curve" smooth="yes"/>
      <point x="305" y="640"/>
      <point x="355" y="590"/>
      <point x="355" y="530" type="curve" smooth="yes"/>
      <point x="355" y="360"/>
      <point x="30" y="269"/>
      <point x="30" y="70" type="curve" smooth="yes"/>
      <point x="30" y="0" type="line"/>
    </contour>
  </outline>
</glyph>
<glyph name="three" format="2">
  <advance width="500"/>
  <unicode hex="0033"/>
  <outline>
    <contour>
      <point x="210" y="-10" type="curve" smooth="yes"/>
      <point x="381" y="-10"/>
      <point x="460" y="69"/>
      <point x="460" y="200" type="curve" smooth="yes"/>
      <point x="460" y="329"/>
      <point x="380" y="410"/>
      <point x="215" y="410" type="curve"/>
      <point x="440" y="630" type="line"/>
      <point x="440" y="700" type="line"/>
      <point x="30" y="700" type="line"/>
      <point x="30" y="630" type="line"/>
      <point x="320" y="630" type="line"/>
      <point x="95" y="410" type="line"/>
      <point x="95" y="340" type="line"/>
      <point x="200" y="340" type="line" smooth="yes"/>
      <point x="311" y="340"/>
      <point x="360" y="291"/>
      <point x="360" y="200" type="curve" smooth="yes"/>
      <point x="360" y="109"/>
      <point x="311" y="60"/>
      <point x="200" y="60" type="curve" smooth="yes"/>
      <point x="155" y="60"/>
      <point x="120" y="71"/>
      <point x="96" y="82" type="curve"/>
      <point x="82" y="89"/>
      <point x="70" y="96"/>
      <point x="60" y="105" type="curve"/>
      <point x="50" y="105" type="line"/>
      <point x="15" y="45" type="line"/>
      <point x="28" y="34"/>
      <point x="45" y="25"/>
      <point x="64" y="17" type="curve"/>
      <point x="96" y="2"/>
      <point x="145" y="-10"/>
    </contour>
  </outline>
</glyph>
<glyph name="five" format="2">
  <advance width="505"/>
  <unicode hex="0035"/>
  <outline>
    <contour>
      <point x="220" y="-10" type="curve" smooth="yes"/>
      <point x="387" y="-10"/>
      <point x="465" y="69"/>
      <point x="465" y="210" type="curve" smooth="yes"/>
      <point x="465" y="351"/>
      <point x="386" y="430"/>
      <point x="225" y="430" type="curve" smooth="yes"/>
      <point x="160" y="430" type="line"/>
      <point x="160" y="630" type="line"/>
      <point x="439" y="630" type="line"/>
      <point x="439" y="700" type="line"/>
      <point x="60" y="700" type="line"/>
      <point x="60" y="390" type="line"/>
      <point x="90" y="360" type="line"/>
      <point x="210" y="360" type="line" smooth="yes"/>
      <point x="313" y="360"/>
      <point x="365" y="310"/>
      <point x="365" y="210" type="curve" smooth="yes"/>
      <point x="365" y="110"/>
      <point x="313" y="60"/>
      <point x="210" y="60" type="curve" smooth="yes"/>
      <point x="165" y="60"/>
      <point x="130" y="71"/>
      <point x="106" y="82" type="curve"/>
      <point x="92" y="89"/>
      <point x="80" y="96"/>
      <point x="70" y="105" type="curve"/>
      <point x="60" y="105" type="line"/>
      <point x="25" y="45" type="line"/>
      <point x="38" y="34"/>
      <point x="55" y="25"/>
      <point x="74" y="17" type="curve"/>
      <point x="106" y="2"/>
      <point x="155" y="-10"/>
    </contour>
  </outline>
</glyph>
<glyph name="seven" format="2">
  <advance width="440"/>
  <unicode hex="0037"/>
  <outline>
    <contour>
      <point x="240" y="0" type="line"/>
      <point x="240" y="90" type="line" smooth="yes"/>
      <point x="240" y="320"/>
      <point x="339" y="520"/>
      <point x="430" y="630" type="curve"/>
      <point x="430" y="700" type="line"/>
      <point x="0" y="700" type="line"/>
      <point x="0" y="630" type="line"/>
      <point x="320" y="630" type="line"/>
      <point x="230" y="521"/>
      <point x="140" y="319"/>
      <point x="140" y="90" type="curve" smooth="yes"/>
      <point x="140" y="0" type="line"/>
    </contour>
  </outline>
</glyph>
<glyph name="colon" format="2">
  <advance width="200"/>
  <unicode hex="003A"/>
  <outline>
    <contour>
      <point x="100" y="390" type="curve" smooth="yes"/>
      <point x="135" y="390"/>
      <point x="160" y="415"/>
      <point x="160" y="450" type="curve" smooth="yes"/>
      <point x="160" y="485"/>
      <point x="135" y="510"/>
      <point x="100" y="510" type="curve" smooth="yes"/>
      <point x="65" y="510"/>
      <point x="40" y="485"/>
      <point x="40" y="450" type="curve" smooth="yes"/>
      <point x="40" y="415"/>
      <point x="65" y="390"/>
    </contour>
    <contour>
      <point x="100" y="-10" type="curve" smooth="yes"/>
      <point x="135" y="-10"/>
      <point x="160" y="15"/>
      <point x="160" y="50" type="curve" smooth="yes"/>
      <point x="160" y="85"/>
      <point x="135" y="110"/>
      <point x="100" y="110" type="curve" smooth="yes"/>
      <point x="65" y="110"/>
      <point x="40" y="85"/>
      <point x="40" y="50" type="curve" smooth="yes"/>
      <point x="40" y="15"/>
      <point x="65" y="-10"/>
    </contour>
  </outline>
</glyph>
<glyph name="semicolon" format="2">
  <advance width="200"/>
  <unicode hex="003B"/>
  <outline>
    <contour>
      <point x="70" y="-130" type="line"/>
      <point x="87" y="-119"/>
      <point x="102" y="-105"/>
      <point x="115" y="-88" type="curve"/>
      <point x="138" y="-60"/>
      <point x="160" y="-19"/>
      <point x="160" y="40" type="curve" smooth="yes"/>
      <point x="160" y="85"/>
      <point x="135" y="110"/>
      <point x="95" y="110" type="curve" smooth="yes"/>
      <point x="64" y="110"/>
      <point x="40" y="85"/>
      <point x="40" y="50" type="curve" smooth="yes"/>
      <point x="40" y="15"/>
      <point x="64" y="-10"/>
      <point x="95" y="-10" type="curve"/>
      <point x="95" y="-33"/>
      <point x="82" y="-53"/>
      <point x="67" y="-69" type="curve"/>
      <point x="59" y="-78"/>
      <point x="50" y="-87"/>
      <point x="40" y="-95" type="curve"/>
    </contour>
    <contour>
      <point x="100" y="390" type="curve" smooth="yes"/>
      <point x="135" y="390"/>
      <point x="160" y="415"/>
      <point x="160" y="450" type="curve" smooth="yes"/>
      <point x="160" y="485"/>
      <point x="135" y="510"/>
      <point x="100" y="510" type="curve" smooth="yes"/>
      <point x="65" y="510"/>
      <point x="40" y="485"/>
      <point x="40" y="450" type="curve" smooth="yes"/>
      <point x="40" y="415"/>
      <point x="65" y="390"/>
    </contour>
  </outline>
</glyph>
<glyph name="F" format="2">
  <advance width="500"/>
  <unicode hex="0046"/>
  <outline>
    <contour>
      <point x="190" y="0" type="line"/>
      <point x="190" y="320" type="line"/>
      <point x="420" y="320" type="line"/>
      <point x="420" y="390" type="line"/>
      <point x="190" y="390" type="line"/>
      <point x="190" y="630" type="line"/>
      <point x="480" y="630" type="line"/>
      <point x="480" y="700" type="line"/>
      <point x="90" y="700" type="line"/>
      <point x="90" y="0" type="line"/>
    </contour>
  </outline>
</glyph>
<glyph name="G" format="2">
  <advance width="565"/>
  <unicode hex="0047"/>
  <outline>
    <contour>
      <point x="315" y="-10" type="curve" smooth="yes"/>
      <point x="377" y="-10"/>
      <point x="450" y="6"/>
      <point x="500" y="45" type="curve"/>
      <point x="500" y="350" type="line"/>
      <point x="470" y="380" type="line"/>
      <point x="285" y="380" type="line"/>
      <point x="285" y="310" type="line"/>
      <point x="400" y="310" type="line"/>
      <point x="400" y="80" type="line"/>
      <point x="397" y="78"/>
      <point x="365" y="60"/>
      <point x="325" y="60" type="curve" smooth="yes"/>
      <point x="225" y="60"/>
      <point x="155" y="130"/>
      <point x="155" y="350" type="curve" smooth="yes"/>
      <point x="155" y="570"/>
      <point x="225" y="640"/>
      <point x="315" y="640" type="curve" smooth="yes"/>
      <point x="360" y="640"/>
      <point x="399" y="621"/>
      <point x="435" y="595" type="curve"/>
      <point x="445" y="595" type="line"/>
      <point x="480" y="655" type="line"/>
      <point x="431" y="692"/>
      <point x="365" y="710"/>
      <point x="305" y="710" type="curve" smooth="yes"/>
      <point x="165" y="710"/>
      <point x="55" y="601"/>
      <point x="55" y="350" type="curve" smooth="yes"/>
      <point x="55" y="99"/>
      <point x="165" y="-10"/>
    </contour>
  </outline>
</glyph>
<glyph name="I" format="2">
  <advance width="280"/>
  <unicode hex="0049"/>
  <anchor x="140" y="0" name="bottom"/>
  <anchor x="190" y="0" name="ogonek"/>
  <anchor x="140" y="700" name="top"/>
  <anchor x="20" y="700" name="topleft"/>
  <outline>
    <contour>
      <point x="190" y="0" type="line"/>
      <point x="190" y="700" type="line"/>
      <point x="90" y="700" type="line"/>
      <point x="90" y="0" type="line"/>
    </contour>
  </outline>
</glyph>
<glyph name="K" format="2">
  <advance width="555"/>
  <unicode hex="004B"/>
  <outline>
    <contour>
      <point x="190" y="0" type="line"/>
      <point x="190" y="350" type="line"/>
      <point x="425" y="0" type="line"/>
      <point x="540" y="0" type="line"/>
      <point x="300" y="360" type="line"/>
      <point x="530" y="700" type="line"/>
      <point x="415" y="700" type="line"/>
      <point x="190" y="370" type="line"/>
      <point x="190" y="700" type="line"/>
      <point x="90" y="700" type="line"/>
      <point x="90" y="0" type="line"/>
    </contour>
  </outline>
</glyph>
<glyph name="L" format="2">
  <advance width="490"/>
  <unicode hex="004C"/>
  <outline>
    <contour>
      <point x="480" y="0" type="line"/>
      <point x="480" y="70" type="line"/>
      <point x="190" y="70" type="line"/>
      <point x="190" y="700" type="line"/>
      <point x="90" y="700" type="line"/>
      <point x="90" y="0" type="line"/>
    </contour>
  </outline>
</glyph>
<glyph name="Q" format="2">
  <advance width="600"/>
  <unicode hex="0051"/>
  <outline>
    <contour>
      <point x="405" y="-155" type="curve" smooth="yes"/>
      <point x="425" y="-155"/>
      <point x="442" y="-152"/>
      <point x="457" y="-148" type="curve"/>
      <point x="465" y="-145"/>
      <point x="473" y="-143"/>
      <point x="480" y="-140" type="curve"/>
      <point x="460" y="-75" type="line"/>
      <point x="450" y="-75" type="line"/>
      <point x="448.105" y="-75.9473"/>
      <point x="441.662" y="-79.1691"/>
      <point x="440" y="-80" type="curve"/>
      <point x="433" y="-83"/>
      <point x="425" y="-85"/>
      <point x="415" y="-85" type="curve" smooth="yes"/>
      <point x="375" y="-85"/>
      <point x="350" y="-61"/>
      <point x="350" y="-5" type="curve"/>
      <point x="465" y="14"/>
      <point x="545" y="121"/>
      <point x="545" y="350" type="curve" smooth="yes"/>
      <point x="545" y="610"/>
      <point x="445" y="710"/>
      <point x="300" y="710" type="curve" smooth="yes"/>
      <point x="155" y="710"/>
      <point x="55" y="610"/>
      <point x="55" y="350" type="curve" smooth="yes"/>
      <point x="55" y="121"/>
      <point x="135" y="14"/>
      <point x="250" y="-5" type="curve"/>
      <point x="250" y="-96"/>
      <point x="309" y="-155"/>
    </contour>
    <contour>
      <point x="300" y="60" type="curve" smooth="yes"/>
      <point x="225" y="60"/>
      <point x="155" y="130"/>
      <point x="155" y="350" type="curve" smooth="yes"/>
      <point x="155" y="570"/>
      <point x="225" y="640"/>
      <point x="300" y="640" type="curve" smooth="yes"/>
      <point x="375" y="640"/>
      <point x="445" y="570"/>
      <point x="445" y="350" type="curve" smooth="yes"/>
      <point x="445" y="130"/>
      <point x="375" y="60"/>
    </contour>
  </outline>
</glyph>
<glyph name="W" format="2">
  <advance width="817"/>
  <unicode hex="0057"/>
  <outline>
    <contour>
      <point x="276" y="0" type="line"/>
      <point x="391" y="490" type="line"/>
      <point x="392.31" y="497.426"/>
      <point x="398.619" y="533.172"/>
      <point x="400" y="541" type="curve"/>
      <point x="404" y="570" type="line"/>
      <point x="408" y="570" type="line"/>
      <point x="412" y="541" type="line"/>
      <point x="415" y="525"/>
      <point x="417" y="505"/>
      <point x="421" y="490" type="curve"/>
      <point x="536" y="0" type="line"/>
      <point x="637" y="0" type="line"/>
      <point x="802" y="700" type="line"/>
      <point x="712" y="700" type="line"/>
      <point x="597" y="210" type="line"/>
      <point x="593" y="195"/>
      <point x="593" y="175"/>
      <point x="589" y="159" type="curve"/>
      <point x="587" y="150"/>
      <point x="587" y="140"/>
      <point x="587" y="130" type="curve"/>
      <point x="583" y="130" type="line"/>
      <point x="580" y="159" type="line"/>
      <point x="577" y="175"/>
      <point x="575" y="195"/>
      <point x="572" y="210" type="curve"/>
      <point x="457" y="700" type="line"/>
      <point x="360" y="700" type="line"/>
      <point x="245" y="210" type="line"/>
      <point x="241" y="195"/>
      <point x="240" y="175"/>
      <point x="237" y="159" type="curve"/>
      <point x="234" y="130" type="line"/>
      <point x="230" y="130" type="line"/>
      <point x="230" y="140"/>
      <point x="229" y="150"/>
      <point x="228" y="159" type="curve" smooth="yes"/>
      <point x="226" y="175"/>
      <point x="223" y="195"/>
      <point x="220" y="210" type="curve"/>
      <point x="105" y="700" type="line"/>
      <point x="15" y="700" type="line"/>
      <point x="180" y="0" type="line"/>
    </contour>
  </outline>
</glyph>
<glyph name="Y" format="2">
  <advance width="530"/>
  <unicode hex="0059"/>
  <outline>
    <contour>
      <point x="315" y="0" type="line"/>
      <point x="315" y="230" type="line"/>
      <point x="530" y="700" type="line"/>
      <point x="440" y="700" type="line"/>
      <point x="290" y="365" type="line"/>
      <point x="283" y="352"/>
      <point x="280" y="338"/>
      <point x="277" y="326" type="curve"/>
      <point x="275" y="319"/>
      <point x="273" y="312"/>
      <point x="272" y="305" type="curve"/>
      <point x="268" y="305" type="line"/>
      <point x="267" y="312"/>
      <point x="265" y="319"/>
      <point x="263" y="326" type="curve"/>
      <point x="260" y="338"/>
      <point x="255" y="352"/>
      <point x="250" y="365" type="curve"/>
      <point x="105" y="700" type="line"/>
      <point x="0" y="700" type="line"/>
      <point x="215" y="230" type="line"/>
      <point x="215" y="0" type="line"/>
    </contour>
  </outline>
</glyph>
<glyph name="bracketleft" format="2">
  <advance width="310"/>
  <unicode hex="005B"/>
  <outline>
    <contour>
      <point x="290" y="-170" type="line"/>
      <point x="290" y="-100" type="line"/>
      <point x="190" y="-100" type="line"/>
      <point x="190" y="660" type="line"/>
      <point x="290" y="660" type="line"/>
      <point x="290" y="730" type="line"/>
      <point x="90" y="730" type="line"/>
      <point x="90" y="-170" type="line"/>
    </contour>
  </outline>
</glyph>
<glyph name="underscore" format="2">
  <advance width="380"/>
  <unicode hex="005F"/>
  <outline>
    <contour>
      <point x="380" y="-130" type="line"/>
      <point x="380" y="-50" type="line"/>
      <point x="0" y="-50" type="line"/>
      <point x="0" y="-130" type="line"/>
    </contour>
  </outline>
</glyph>
<glyph name="f" format="2">
  <advance width="340"/>
  <unicode hex="0066"/>
  <outline>
    <contour>
      <point x="185" y="0" type="line"/>
      <point x="185" y="430" type="line"/>
      <point x="320" y="430" type="line"/>
      <point x="320" y="500" type="line"/>
      <point x="185" y="500" type="line"/>
      <point x="185" y="550" type="line" smooth="yes"/>
      <point x="185" y="610"/>
      <point x="215" y="640"/>
      <point x="260" y="640" type="curve" smooth="yes"/>
      <point x="283" y="640"/>
      <point x="305" y="628"/>
      <point x="322" y="617" type="curve"/>
      <point x="332" y="610"/>
      <point x="341" y="603"/>
      <point x="350" y="595" type="curve"/>
      <point x="360" y="595" type="line"/>
      <point x="395" y="655" type="line"/>
      <point x="383" y="665"/>
      <point x="369" y="674"/>
      <point x="354" y="682" type="curve" smooth="yes"/>
      <point x="327" y="697"/>
      <point x="293" y="710"/>
      <point x="250" y="710" type="curve" smooth="yes"/>
      <point x="150" y="710"/>
      <point x="85" y="646"/>
      <point x="85" y="550" type="curve" smooth="yes"/>
      <point x="85" y="500" type="line"/>
      <point x="20" y="500" type="line"/>
      <point x="20" y="430" type="line"/>
      <point x="85" y="430" type="line"/>
      <point x="85" y="0" type="line"/>
    </contour>
  </outline>
</glyph>
<glyph name="i" format="2">
  <advance width="250"/>
  <unicode hex="0069"/>
  <outline>
    <contour>
      <point x="175" y="0" type="line"/>
      <point x="175" y="500" type="line"/>
      <point x="75" y="500" type="line"/>
      <point x="75" y="0" type="line"/>
    </contour>
    <contour>
      <point x="125" y="580" type="curve" smooth="yes"/>
      <point x="160" y="580"/>
      <point x="185" y="605"/>
      <point x="185" y="640" type="curve" smooth="yes"/>
      <point x="185" y="675"/>
      <point x="160" y="700"/>
      <point x="125" y="700" type="curve" smooth="yes"/>
      <point x="90" y="700"/>
      <point x="65" y="675"/>
      <point x="65" y="640" type="curve" smooth="yes"/>
      <point x="65" y="605"/>
      <point x="90" y="580"/>
    </contour>
  </outline>
</glyph>
<glyph name="k" format="2">
  <advance width="480"/>
  <unicode hex="006B"/>
  <outline>
    <contour>
      <point x="175" y="0" type="line"/>
      <point x="175" y="250" type="line"/>
      <point x="355" y="0" type="line"/>
      <point x="470" y="0" type="line"/>
      <point x="280" y="260" type="line"/>
      <point x="460" y="500" type="line"/>
      <point x="345" y="500" type="line"/>
      <point x="175" y="270" type="line"/>
      <point x="175" y="700" type="line"/>
      <point x="105" y="700" type="line"/>
      <point x="75" y="670" type="line"/>
      <point x="75" y="0" type="line"/>
    </contour>
  </outline>
</glyph>
<glyph name="t" format="2">
  <advance width="400"/>
  <unicode hex="0074"/>
  <outline>
    <contour>
      <point x="260" y="-10" type="curve" smooth="yes"/>
      <point x="300" y="-10"/>
      <point x="335" y="2"/>
      <point x="360" y="15" type="curve"/>
      <point x="375" y="22"/>
      <point x="388" y="31"/>
      <point x="400" y="40" type="curve"/>
      <point x="365" y="100" type="line"/>
      <point x="355" y="100" type="line"/>
      <point x="347" y="93"/>
      <point x="338" y="86"/>
      <point x="329" y="80" type="curve" smooth="yes"/>
      <point x="313" y="69"/>
      <point x="293" y="60"/>
      <point x="270" y="60" type="curve" smooth="yes"/>
      <point x="225" y="60"/>
      <point x="195" y="90"/>
      <point x="195" y="150" type="curve" smooth="yes"/>
      <point x="195" y="430" type="line"/>
      <point x="320" y="430" type="line"/>
      <point x="320" y="500" type="line"/>
      <point x="195" y="500" type="line"/>
      <point x="195" y="620" type="line"/>
      <point x="150" y="620" type="line"/>
      <point x="20" y="490" type="line"/>
      <point x="20" y="430" type="line"/>
      <point x="95" y="430" type="line"/>
      <point x="95" y="150" type="line" smooth="yes"/>
      <point x="95" y="54"/>
      <point x="160" y="-10"/>
    </contour>
  </outline>
</glyph>
<glyph name="bar" format="2">
  <advance width="280"/>
  <unicode hex="007C"/>
  <outline>
    <contour>
      <point x="190" y="-200" type="line"/>
      <point x="190" y="700" type="line"/>
      <point x="90" y="700" type="line"/>
      <point x="90" y="-200" type="line"/>
    </contour>
  </outline>
</glyph>
<glyph name="currency" format="2">
  <advance width="575"/>
  <unicode hex="00A4"/>
  <outline>
    <contour>
      <point x="200" y="0" type="line"/>
      <point x="200" y="170" type="line"/>
      <point x="450" y="170" type="line"/>
      <point x="450" y="230" type="line"/>
      <point x="200" y="230" type="line"/>
      <point x="200" y="270" type="line"/>
      <point x="280" y="270" type="line" smooth="yes"/>
      <point x="451" y="270"/>
      <point x="530" y="349"/>
      <point x="530" y="480" type="curve" smooth="yes"/>
      <point x="530" y="621"/>
      <point x="451" y="700"/>
      <point x="280" y="700" type="curve" smooth="yes"/>
      <point x="100" y="700" type="line"/>
      <point x="100" y="330" type="line"/>
      <point x="20" y="330" type="line"/>
      <point x="20" y="270" type="line"/>
      <point x="100" y="270" type="line"/>
      <point x="100" y="230" type="line"/>
      <point x="20" y="230" type="line"/>
      <point x="20" y="170" type="line"/>
      <point x="100" y="170" type="line"/>
      <point x="100" y="0" type="line"/>
    </contour>
    <contour>
      <point x="200" y="630" type="line"/>
      <point x="280" y="630" type="line" smooth="yes"/>
      <point x="380" y="630"/>
      <point x="430" y="580"/>
      <point x="430" y="480" type="curve" smooth="yes"/>
      <point x="430" y="380"/>
      <point x="380" y="330"/>
      <point x="280" y="330" type="curve" smooth="yes"/>
      <point x="200" y="330" type="line"/>
    </contour>
  </outline>
</glyph>
<glyph name="section" format="2">
  <advance width="510"/>
  <unicode hex="00A7"/>
  <outline>
    <contour>
      <point x="240" y="-210" type="curve" smooth="yes"/>
      <point x="385" y="-210"/>
      <point x="455" y="-141"/>
      <point x="455" y="-30" type="curve" smooth="yes"/>
      <point x="455" y="29"/>
      <point x="429" y="65"/>
      <point x="392" y="92" type="curve"/>
      <point x="441" y="123"/>
      <point x="465" y="173"/>
      <point x="465" y="240" type="curve" smooth="yes"/>
      <point x="465" y="450"/>
      <point x="155" y="406"/>
      <point x="155" y="545" type="curve" smooth="yes"/>
      <point x="155" y="601"/>
      <point x="195" y="640"/>
      <point x="275" y="640" type="curve" smooth="yes"/>
      <point x="320" y="640"/>
      <point x="359" y="621"/>
      <point x="395" y="595" type="curve"/>
      <point x="405" y="595" type="line"/>
      <point x="440" y="655" type="line"/>
      <point x="391" y="692"/>
      <point x="325" y="710"/>
      <point x="265" y="710" type="curve" smooth="yes"/>
      <point x="124" y="710"/>
      <point x="55" y="640"/>
      <point x="55" y="535" type="curve" smooth="yes"/>
      <point x="55" y="475"/>
      <point x="81" y="438"/>
      <point x="120" y="411" type="curve"/>
      <point x="71" y="380"/>
      <point x="45" y="329"/>
      <point x="45" y="265" type="curve" smooth="yes"/>
      <point x="45" y="55"/>
      <point x="355" y="100"/>
      <point x="355" y="-40" type="curve" smooth="yes"/>
      <point x="355" y="-100"/>
      <point x="315" y="-140"/>
      <point x="230" y="-140" type="curve" smooth="yes"/>
      <point x="187" y="-140"/>
      <point x="133" y="-125"/>
      <point x="100" y="-95" type="curve"/>
      <point x="90" y="-95" type="line"/>
      <point x="55" y="-155" type="line"/>
      <point x="103" y="-196"/>
      <point x="180" y="-210"/>
    </contour>
    <contour>
      <point x="305" y="140" type="curve"/>
      <point x="224" y="164"/>
      <point x="145" y="201"/>
      <point x="145" y="275" type="curve" smooth="yes"/>
      <point x="145" y="315"/>
      <point x="170" y="350"/>
      <point x="210" y="365" type="curve"/>
      <point x="289" y="341"/>
      <point x="370" y="304"/>
      <point x="370" y="230" type="curve" smooth="yes"/>
      <point x="370" y="190"/>
      <point x="345" y="155"/>
    </contour>
  </outline>
</glyph>
<glyph name="copyright" format="2">
  <advance width="860"/>
  <unicode hex="00A9"/>
  <outline>
    <contour>
      <point x="430" y="-30" type="curve" smooth="yes"/>
      <point x="660" y="-30"/>
      <point x="820" y="130"/>
      <point x="820" y="350" type="curve" smooth="yes"/>
      <point x="820" y="570"/>
      <point x="660" y="730"/>
      <point x="430" y="730" type="curve" smooth="yes"/>
      <point x="200" y="730"/>
      <point x="40" y="570"/>
      <point x="40" y="350" type="curve" smooth="yes"/>
      <point x="40" y="130"/>
      <point x="200" y="-30"/>
    </contour>
    <contour>
      <point x="445" y="125" type="curve" smooth="yes"/>
      <point x="488" y="125"/>
      <point x="525" y="137"/>
      <point x="550" y="150" type="curve"/>
      <point x="565" y="157"/>
      <point x="578" y="166"/>
      <point x="590" y="175" type="curve"/>
      <point x="560" y="225" type="line"/>
      <point x="551" y="225" type="line"/>
      <point x="542" y="218"/>
      <point x="533" y="212"/>
      <point x="522" y="207" type="curve" smooth="yes"/>
      <point x="503" y="198"/>
      <point x="480" y="190"/>
      <point x="455" y="190" type="curve" smooth="yes"/>
      <point x="384" y="190"/>
      <point x="340" y="235"/>
      <point x="340" y="350" type="curve" smooth="yes"/>
      <point x="340" y="465"/>
      <point x="385" y="510"/>
      <point x="445" y="510" type="curve" smooth="yes"/>
      <point x="470" y="510"/>
      <point x="493" y="501"/>
      <point x="512" y="492" type="curve" smooth="yes"/>
      <point x="523" y="487"/>
      <point x="532" y="481"/>
      <point x="541" y="475" type="curve"/>
      <point x="550" y="475" type="line"/>
      <point x="580" y="525" type="line"/>
      <point x="568" y="534"/>
      <point x="555" y="543"/>
      <point x="540" y="550" type="curve" smooth="yes"/>
      <point x="515" y="562"/>
      <point x="478" y="575"/>
      <point x="435" y="575" type="curve" smooth="yes"/>
      <point x="326" y="575"/>
      <point x="250" y="500"/>
      <point x="250" y="350" type="curve" smooth="yes"/>
      <point x="250" y="199"/>
      <point x="324" y="125"/>
    </contour>
    <contour>
      <point x="430" y="40" type="curve" smooth="yes"/>
      <point x="260" y="40"/>
      <point x="130" y="170"/>
      <point x="130" y="350" type="curve" smooth="yes"/>
      <point x="130" y="530"/>
      <point x="260" y="660"/>
      <point x="430" y="660" type="curve" smooth="yes"/>
      <point x="600" y="660"/>
      <point x="730" y="530"/>
      <point x="730" y="350" type="curve" smooth="yes"/>
      <point x="730" y="170"/>
      <point x="600" y="40"/>
    </contour>
  </outline>
</glyph>
<glyph name="logicalnot" format="2">
  <advance width="460"/>
  <unicode hex="00AC"/>
  <outline>
    <contour>
      <point x="430" y="240" type="line"/>
      <point x="430" y="410" type="line"/>
      <point x="30" y="410" type="line"/>
      <point x="30" y="330" type="line"/>
      <point x="340" y="330" type="line"/>
      <point x="340" y="240" type="line"/>
    </contour>
  </outline>
</glyph>
<glyph name="degree" format="2">
  <advance width="380"/>
  <unicode hex="00B0"/>
  <outline>
    <contour>
      <point x="190" y="370" type="curve" smooth="yes"/>
      <point x="290" y="370"/>
      <point x="360" y="440"/>
      <point x="360" y="540" type="curve" smooth="yes"/>
      <point x="360" y="640"/>
      <point x="290" y="710"/>
      <point x="190" y="710" type="curve" smooth="yes"/>
      <point x="90" y="710"/>
      <point x="20" y="640"/>
      <point x="20" y="540" type="curve" smooth="yes"/>
      <point x="20" y="440"/>
      <point x="90" y="370"/>
    </contour>
    <contour>
      <point x="190" y="435" type="curve" smooth="yes"/>
      <point x="145" y="435"/>
      <point x="110" y="469"/>
      <point x="110" y="540" type="curve" smooth="yes"/>
      <point x="110" y="611"/>
      <point x="145" y="645"/>
      <point x="190" y="645" type="curve" smooth="yes"/>
      <point x="235" y="645"/>
      <point x="270" y="611"/>
      <point x="270" y="540" type="curve" smooth="yes"/>
      <point x="270" y="469"/>
      <point x="235" y="435"/>
    </contour>
  </outline>
</glyph>
<glyph name="threesuperior" format="2">
  <advance width="321"/>
  <unicode hex="00B3"/>
  <outline>
    <contour>
      <point x="146" y="350" type="curve" smooth="yes"/>
      <point x="237" y="350"/>
      <point x="286" y="400"/>
      <point x="286" y="460" type="curve" smooth="yes"/>
      <point x="286" y="525"/>
      <point x="240" y="570"/>
      <point x="160" y="570" type="curve"/>
      <point x="270" y="635" type="line"/>
      <point x="270" y="700" type="line"/>
      <point x="36" y="700" type="line"/>
      <point x="36" y="640" type="line"/>
      <point x="180" y="640" type="line"/>
      <point x="60" y="560" type="line"/>
      <point x="60" y="510" type="line"/>
      <point x="126" y="510" type="line" smooth="yes"/>
      <point x="177" y="510"/>
      <point x="196" y="491"/>
      <point x="196" y="460" type="curve" smooth="yes"/>
      <point x="196" y="429"/>
      <point x="176" y="410"/>
      <point x="131" y="410" type="curve" smooth="yes"/>
      <point x="106" y="410"/>
      <point x="87" y="417"/>
      <point x="75" y="425" type="curve"/>
      <point x="68" y="429"/>
      <point x="61" y="434"/>
      <point x="56" y="440" type="curve"/>
      <point x="46" y="440" type="line"/>
      <point x="20" y="395" type="line"/>
      <point x="29" y="386"/>
      <point x="40" y="379"/>
      <point x="53" y="372" type="curve" smooth="yes"/>
      <point x="74" y="361"/>
      <point x="106" y="350"/>
    </contour>
  </outline>
</glyph>
<glyph name="micro" format="2">
  <advance width="550"/>
  <unicode hex="00B5"/>
  <outline>
    <contour>
      <point x="145" y="-200" type="line"/>
      <point x="175" y="-170" type="line"/>
      <point x="175" y="20" type="line"/>
      <point x="182" y="14"/>
      <point x="190" y="9"/>
      <point x="199" y="5" type="curve"/>
      <point x="214" y="-3"/>
      <point x="235" y="-10"/>
      <point x="260" y="-10" type="curve" smooth="yes"/>
      <point x="297" y="-10"/>
      <point x="330" y="5"/>
      <point x="353" y="20" type="curve"/>
      <point x="366" y="29"/>
      <point x="379" y="39"/>
      <point x="390" y="50" type="curve"/>
      <point x="395" y="50" type="line"/>
      <point x="405" y="0" type="line"/>
      <point x="475" y="0" type="line"/>
      <point x="475" y="500" type="line"/>
      <point x="375" y="500" type="line"/>
      <point x="375" y="115" type="line"/>
      <point x="366" y="106"/>
      <point x="356" y="97"/>
      <point x="345" y="90" type="curve"/>
      <point x="326" y="77"/>
      <point x="301" y="65"/>
      <point x="270" y="65" type="curve" smooth="yes"/>
      <point x="214" y="65"/>
      <point x="175" y="104"/>
      <point x="175" y="160" type="curve" smooth="yes"/>
      <point x="175" y="500" type="line"/>
      <point x="75" y="500" type="line"/>
      <point x="75" y="-200" type="line"/>
    </contour>
  </outline>
</glyph>
<glyph name="paragraph" format="2">
  <advance width="565"/>
  <unicode hex="00B6"/>
  <outline>
    <contour>
      <point x="315" y="-200" type="line"/>
      <point x="315" y="630" type="line"/>
      <point x="385" y="630" type="line"/>
      <point x="385" y="-200" type="line"/>
      <point x="475" y="-200" type="line"/>
      <point x="475" y="630" type="line"/>
      <point x="555" y="630" type="line"/>
      <point x="555" y="700" type="line"/>
      <point x="225" y="700" type="line" smooth="yes"/>
      <point x="116" y="700"/>
      <point x="25" y="610"/>
      <point x="25" y="495" type="curve" smooth="yes"/>
      <point x="25" y="380"/>
      <point x="116" y="290"/>
      <point x="225" y="290" type="curve"/>
      <point x="225" y="-200" type="line"/>
    </contour>
  </outline>
</glyph>
<glyph name="onesuperior" format="2">
  <advance width="325"/>
  <unicode hex="00B9"/>
  <outline>
    <contour>
      <point x="290" y="360" type="line"/>
      <point x="290" y="420" type="line"/>
      <point x="215" y="420" type="line"/>
      <point x="215" y="700" type="line"/>
      <point x="130" y="700" type="line"/>
      <point x="35" y="620" type="line"/>
      <point x="65" y="575" type="line"/>
      <point x="125" y="610" type="line"/>
      <point x="125" y="420" type="line"/>
      <point x="50" y="420" type="line"/>
      <point x="50" y="360" type="line"/>
    </contour>
  </outline>
</glyph>
<glyph name="questiondown" format="2">
  <advance width="460"/>
  <unicode hex="00BF"/>
  <outline>
    <contour>
      <point x="265" y="-210" type="curve" smooth="yes"/>
      <point x="330" y="-210"/>
      <point x="378" y="-198"/>
      <point x="411" y="-183" type="curve"/>
      <point x="430" y="-175"/>
      <point x="446" y="-166"/>
      <point x="460" y="-155" type="curve"/>
      <point x="425" y="-95" type="line"/>
      <point x="415" y="-95" type="line"/>
      <point x="405" y="-104"/>
      <point x="393" y="-111"/>
      <point x="379" y="-118" type="curve"/>
      <point x="355" y="-129"/>
      <point x="320" y="-140"/>
      <point x="275" y="-140" type="curve" smooth="yes"/>
      <point x="190" y="-140"/>
      <point x="140" y="-90"/>
      <point x="140" y="-30" type="curve" smooth="yes"/>
      <point x="140" y="110"/>
      <point x="324" y="110"/>
      <point x="324" y="280" type="curve" smooth="yes"/>
      <point x="324" y="320" type="line"/>
      <point x="234" y="320" type="line"/>
      <point x="234" y="280" type="line" smooth="yes"/>
      <point x="234" y="149"/>
      <point x="40" y="150"/>
      <point x="40" y="-20" type="curve" smooth="yes"/>
      <point x="40" y="-130"/>
      <point x="121" y="-210"/>
    </contour>
    <contour>
      <point x="279" y="390" type="curve" smooth="yes"/>
      <point x="314" y="390"/>
      <point x="339" y="415"/>
      <point x="339" y="450" type="curve" smooth="yes"/>
      <point x="339" y="485"/>
      <point x="314" y="510"/>
      <point x="279" y="510" type="curve" smooth="yes"/>
      <point x="244" y="510"/>
      <point x="219" y="485"/>
      <point x="219" y="450" type="curve" smooth="yes"/>
      <point x="219" y="415"/>
      <point x="244" y="390"/>
    </contour>
  </outline>
</glyph>
<glyph name="Eth" format="2">
  <advance width="585"/>
  <unicode hex="00D0"/>
  <outline>
    <contour>
      <point x="240" y="0" type="line" smooth="yes"/>
      <point x="430" y="0"/>
      <point x="530" y="99"/>
      <point x="530" y="350" type="curve" smooth="yes"/>
      <point x="530" y="601"/>
      <point x="430" y="700"/>
      <point x="240" y="700" type="curve" smooth="yes"/>
      <point x="90" y="700" type="line"/>
      <point x="90" y="400" type="line"/>
      <point x="35" y="400" type="line"/>
      <point x="35" y="320" type="line"/>
      <point x="90" y="320" type="line"/>
      <point x="90" y="0" type="line"/>
    </contour>
    <contour>
      <point x="190" y="320" type="line"/>
      <point x="305" y="320" type="line"/>
      <point x="305" y="400" type="line"/>
      <point x="190" y="400" type="line"/>
      <point x="190" y="630" type="line"/>
      <point x="240" y="630" type="line" smooth="yes"/>
      <point x="360" y="630"/>
      <point x="430" y="561"/>
      <point x="430" y="350" type="curve" smooth="yes"/>
      <point x="430" y="139"/>
      <point x="360" y="70"/>
      <point x="240" y="70" type="curve" smooth="yes"/>
      <point x="190" y="70" type="line"/>
    </contour>
  </outline>
</glyph>
<glyph name="multiply" format="2">
  <advance width="437"/>
  <unicode hex="00D7"/>
  <outline>
    <contour>
      <point x="219" y="273" type="line"/>
      <point x="335" y="157" type="line"/>
      <point x="392" y="213" type="line"/>
      <point x="275" y="330" type="line"/>
      <point x="392" y="447" type="line"/>
      <point x="335" y="503" type="line"/>
      <point x="219" y="387" type="line"/>
      <point x="102" y="503" type="line"/>
      <point x="45" y="447" type="line"/>
      <point x="162" y="330" type="line"/>
      <point x="45" y="213" type="line"/>
      <point x="102" y="157" type="line"/>
    </contour>
  </outline>
</glyph>
<glyph name="germandbls" format="2">
  <advance width="620"/>
  <unicode hex="00DF"/>
  <outline>
    <contour>
      <point x="390" y="-10" type="curve" smooth="yes"/>
      <point x="511" y="-10"/>
      <point x="585" y="64"/>
      <point x="585" y="180" type="curve" smooth="yes"/>
      <point x="585" y="330"/>
      <point x="400" y="345"/>
      <point x="400" y="450" type="curve" smooth="yes"/>
      <point x="400" y="501"/>
      <point x="440" y="509"/>
      <point x="440" y="570" type="curve" smooth="yes"/>
      <point x="440" y="650"/>
      <point x="381" y="710"/>
      <point x="265" y="710" type="curve" smooth="yes"/>
      <point x="165" y="710"/>
      <point x="100" y="646"/>
      <point x="100" y="550" type="curve" smooth="yes"/>
      <point x="100" y="490" type="line"/>
      <point x="35" y="490" type="line"/>
      <point x="35" y="420" type="line"/>
      <point x="100" y="420" type="line"/>
      <point x="100" y="0" type="line"/>
      <point x="200" y="0" type="line"/>
      <point x="200" y="550" type="line" smooth="yes"/>
      <point x="200" y="610"/>
      <point x="230" y="640"/>
      <point x="275" y="640" type="curve" smooth="yes"/>
      <point x="310" y="640"/>
      <point x="340" y="610"/>
      <point x="340" y="570" type="curve" smooth="yes"/>
      <point x="340" y="519"/>
      <point x="310" y="501"/>
      <point x="310" y="450" type="curve" smooth="yes"/>
      <point x="310" y="300"/>
      <point x="485" y="286"/>
      <point x="485" y="170" type="curve" smooth="yes"/>
      <point x="485" y="99"/>
      <point x="445" y="60"/>
      <point x="380" y="60" type="curve" smooth="yes"/>
      <point x="360" y="60"/>
      <point x="343" y="65"/>
      <point x="332" y="72" type="curve"/>
      <point x="325" y="75"/>
      <point x="320" y="80"/>
      <point x="315" y="85" type="curve"/>
      <point x="305" y="85" type="line"/>
      <point x="280" y="20" type="line"/>
      <point x="288" y="14"/>
      <point x="298" y="9"/>
      <point x="309" y="5" type="curve"/>
      <point x="328" y="-3"/>
      <point x="355" y="-10"/>
    </contour>
  </outline>
</glyph>
<glyph name="idieresis" format="2">
  <advance width="260"/>
  <unicode hex="00EF"/>
  <outline>
    <contour>
      <point x="180" y="0" type="line"/>
      <point x="180" y="500" type="line"/>
      <point x="80" y="500" type="line"/>
      <point x="80" y="0" type="line"/>
    </contour>
    <contour>
      <point x="40" y="565" type="curve" smooth="yes"/>
      <point x="72" y="565"/>
      <point x="95" y="588"/>
      <point x="95" y="620" type="curve" smooth="yes"/>
      <point x="95" y="652"/>
      <point x="72" y="675"/>
      <point x="40" y="675" type="curve" smooth="yes"/>
      <point x="8" y="675"/>
      <point x="-15" y="652"/>
      <point x="-15" y="620" type="curve" smooth="yes"/>
      <point x="-15" y="588"/>
      <point x="8" y="565"/>
    </contour>
    <contour>
      <point x="215" y="565" type="curve" smooth="yes"/>
      <point x="247" y="565"/>
      <point x="270" y="588"/>
      <point x="270" y="620" type="curve" smooth="yes"/>
      <point x="270" y="652"/>
      <point x="247" y="675"/>
      <point x="215" y="675" type="curve" smooth="yes"/>
      <point x="183" y="675"/>
      <point x="160" y="652"/>
      <point x="160" y="620" type="curve" smooth="yes"/>
      <point x="160" y="588"/>
      <point x="183" y="565"/>
    </contour>
  </outline>
</glyph>
<glyph name="eth" format="2">
  <advance width="515"/>
  <unicode hex="00F0"/>
  <outline>
    <contour>
      <point x="250" y="-10" type="curve" smooth="yes"/>
      <point x="375" y="-10"/>
      <point x="460" y="75"/>
      <point x="460" y="225" type="curve" smooth="yes"/>
      <point x="460" y="325" type="line" smooth="yes"/>
      <point x="460" y="482"/>
      <point x="416" y="574"/>
      <point x="332" y="625" type="curve"/>
      <point x="360" y="684" type="line"/>
      <point x="296" y="713" type="line"/>
      <point x="268" y="654" type="line"/>
      <point x="247" y="661"/>
      <point x="224" y="666"/>
      <point x="200" y="670" type="curve" smooth="yes"/>
      <point x="140" y="680" type="line"/>
      <point x="130" y="610" type="line"/>
      <point x="185" y="600" type="line"/>
      <point x="204" y="596"/>
      <point x="221" y="592"/>
      <point x="237" y="587" type="curve"/>
      <point x="207" y="524" type="line"/>
      <point x="270" y="494" type="line"/>
      <point x="300" y="557" type="line"/>
      <point x="352" y="522"/>
      <point x="375" y="467"/>
      <point x="375" y="390" type="curve"/>
      <point x="344" y="441"/>
      <point x="296" y="460"/>
      <point x="225" y="460" type="curve" smooth="yes"/>
      <point x="125" y="460"/>
      <point x="40" y="375"/>
      <point x="40" y="225" type="curve" smooth="yes"/>
      <point x="40" y="75"/>
      <point x="125" y="-10"/>
    </contour>
    <contour>
      <point x="250" y="60" type="curve" smooth="yes"/>
      <point x="190" y="60"/>
      <point x="140" y="110"/>
      <point x="140" y="225" type="curve" smooth="yes"/>
      <point x="140" y="334"/>
      <point x="190" y="385"/>
      <point x="250" y="385" type="curve" smooth="yes"/>
      <point x="310" y="385"/>
      <point x="360" y="334"/>
      <point x="360" y="225" type="curve" smooth="yes"/>
      <point x="360" y="110"/>
      <point x="310" y="60"/>
    </contour>
  </outline>
</glyph>
<glyph name="oslash" format="2">
  <advance width="530"/>
  <unicode hex="00F8"/>
  <outline>
    <contour>
      <point x="265" y="-10" type="curve" smooth="yes"/>
      <point x="395" y="-10"/>
      <point x="480" y="75"/>
      <point x="480" y="250" type="curve" smooth="yes"/>
      <point x="480" y="333"/>
      <point x="461" y="394"/>
      <point x="428" y="437" type="curve"/>
      <point x="470" y="500" type="line"/>
      <point x="390" y="500" type="line"/>
      <point x="378" y="482" type="line"/>
      <point x="347" y="501"/>
      <point x="309" y="510"/>
      <point x="265" y="510" type="curve" smooth="yes"/>
      <point x="134" y="510"/>
      <point x="50" y="425"/>
      <point x="50" y="250" type="curve" smooth="yes"/>
      <point x="50" y="169"/>
      <point x="67" y="107"/>
      <point x="101" y="63" type="curve"/>
      <point x="60" y="0" type="line"/>
      <point x="140" y="0" type="line"/>
      <point x="152" y="18" type="line"/>
      <point x="185" y="-1"/>
      <point x="223" y="-10"/>
    </contour>
    <contour>
      <point x="265" y="60" type="curve" smooth="yes"/>
      <point x="238" y="60"/>
      <point x="215" y="67"/>
      <point x="196" y="86" type="curve"/>
      <point x="369" y="347" type="line"/>
      <point x="376" y="320"/>
      <point x="380" y="287"/>
      <point x="380" y="250" type="curve" smooth="yes"/>
      <point x="380" y="110"/>
      <point x="329" y="60"/>
    </contour>
    <contour>
      <point x="161" y="153" type="line"/>
      <point x="154" y="180"/>
      <point x="150" y="213"/>
      <point x="150" y="250" type="curve" smooth="yes"/>
      <point x="150" y="390"/>
      <point x="201" y="440"/>
      <point x="265" y="440" type="curve" smooth="yes"/>
      <point x="292" y="440"/>
      <point x="315" y="431"/>
      <point x="333" y="414" type="curve"/>
    </contour>
  </outline>
</glyph>
<glyph name="oe" format="2">
  <advance width="820"/>
  <unicode hex="0153"/>
  <outline>
    <contour>
      <point x="260" y="-10" type="curve" smooth="yes"/>
      <point x="336" y="-10"/>
      <point x="385" y="15"/>
      <point x="421" y="70" type="curve"/>
      <point x="460" y="15"/>
      <point x="520" y="-10"/>
      <point x="585" y="-10" type="curve" smooth="yes"/>
      <point x="642" y="-10"/>
      <point x="706" y="7"/>
      <point x="750" y="45" type="curve"/>
      <point x="715" y="105" type="line"/>
      <point x="705" y="105" type="line"/>
      <point x="677" y="79"/>
      <point x="633" y="60"/>
      <point x="595" y="60" type="curve" smooth="yes"/>
      <point x="524" y="60"/>
      <point x="475" y="110"/>
      <point x="475" y="215" type="curve"/>
      <point x="755" y="215" type="line"/>
      <point x="775" y="235" type="line"/>
      <point x="775" y="250" type="line" smooth="yes"/>
      <point x="775" y="425"/>
      <point x="690" y="510"/>
      <point x="575" y="510" type="curve" smooth="yes"/>
      <point x="506" y="510"/>
      <point x="455" y="475"/>
      <point x="420" y="430" type="curve"/>
      <point x="385" y="475"/>
      <point x="336" y="510"/>
      <point x="260" y="510" type="curve" smooth="yes"/>
      <point x="135" y="510"/>
      <point x="50" y="425"/>
      <point x="50" y="250" type="curve" smooth="yes"/>
      <point x="50" y="75"/>
      <point x="135" y="-10"/>
    </contour>
    <contour>
      <point x="260" y="60" type="curve" smooth="yes"/>
      <point x="199" y="60"/>
      <point x="150" y="110"/>
      <point x="150" y="250" type="curve" smooth="yes"/>
      <point x="150" y="390"/>
      <point x="199" y="440"/>
      <point x="260" y="440" type="curve" smooth="yes"/>
      <point x="319" y="440"/>
      <point x="370" y="382"/>
      <point x="370" y="250" type="curve" smooth="yes"/>
      <point x="370" y="118"/>
      <point x="319" y="60"/>
    </contour>
    <contour>
      <point x="475" y="285" type="line"/>
      <point x="475" y="394"/>
      <point x="520" y="440"/>
      <point x="575" y="440" type="curve" smooth="yes"/>
      <point x="630" y="440"/>
      <point x="675" y="394"/>
      <point x="675" y="285" type="curve"/>
    </contour>
  </outline>
</glyph>
<glyph name="tcaron" format="2">
  <advance width="480"/>
  <unicode hex="0165"/>
  <outline>
    <contour>
      <point x="260" y="-10" type="curve" smooth="yes"/>
      <point x="300" y="-10"/>
      <point x="335" y="2"/>
      <point x="360" y="15" type="curve"/>
      <point x="375" y="22"/>
      <point x="388" y="31"/>
      <point x="400" y="40" type="curve"/>
      <point x="365" y="100" type="line"/>
      <point x="355" y="100" type="line"/>
      <point x="347" y="93"/>
      <point x="338" y="86"/>
      <point x="329" y="80" type="curve" smooth="yes"/>
      <point x="313" y="69"/>
      <point x="293" y="60"/>
      <point x="270" y="60" type="curve" smooth="yes"/>
      <point x="225" y="60"/>
      <point x="195" y="90"/>
      <point x="195" y="150" type="curve" smooth="yes"/>
      <point x="195" y="430" type="line"/>
      <point x="320" y="430" type="line"/>
      <point x="320" y="500" type="line"/>
      <point x="195" y="500" type="line"/>
      <point x="195" y="620" type="line"/>
      <point x="150" y="620" type="line"/>
      <point x="20" y="490" type="line"/>
      <point x="20" y="430" type="line"/>
      <point x="95" y="430" type="line"/>
      <point x="95" y="150" type="line" smooth="yes"/>
      <point x="95" y="54"/>
      <point x="160" y="-10"/>
    </contour>
    <contour>
      <point x="390" y="404" type="line"/>
      <point x="405" y="413"/>
      <point x="418" y="425"/>
      <point x="430" y="440" type="curve" smooth="yes"/>
      <point x="450" y="465"/>
      <point x="470" y="503"/>
      <point x="470" y="556" type="curve" smooth="yes"/>
      <point x="470" y="595"/>
      <point x="445" y="620"/>
      <point x="410" y="620" type="curve" smooth="yes"/>
      <point x="385" y="620"/>
      <point x="360" y="596"/>
      <point x="360" y="565" type="curve" smooth="yes"/>
      <point x="360" y="534"/>
      <point x="385" y="510"/>
      <point x="410" y="510" type="curve"/>
      <point x="410" y="490"/>
      <point x="397" y="472"/>
      <point x="385" y="457" type="curve"/>
      <point x="378" y="449"/>
      <point x="369" y="442"/>
      <point x="360" y="435" type="curve"/>
    </contour>
  </outline>
</glyph>
<glyph name="caron" format="2">
  <advance width="320"/>
  <unicode hex="02C7"/>
  <outline>
    <contour>
      <point x="195" y="560" type="line"/>
      <point x="300" y="690" type="line"/>
      <point x="235" y="690" type="line"/>
      <point x="160" y="625" type="line"/>
      <point x="85" y="690" type="line"/>
      <point x="20" y="690" type="line"/>
      <point x="125" y="560" type="line"/>
    </contour>
  </outline>
</glyph>
<glyph name="ogonek" format="2">
  <advance width="190"/>
  <unicode hex="02DB"/>
  <outline>
    <contour>
      <point x="100" y="-155" type="curve" smooth="yes"/>
      <point x="125" y="-155"/>
      <point x="144" y="-150"/>
      <point x="159" y="-143" type="curve"/>
      <point x="167" y="-140"/>
      <point x="174" y="-135"/>
      <point x="180" y="-130" type="curve"/>
      <point x="180" y="-78" type="line"/>
      <point x="171" y="-78" type="line"/>
      <point x="171" y="-78"/>
      <point x="145" y="-100"/>
      <point x="115" y="-100" type="curve" smooth="yes"/>
      <point x="95" y="-100"/>
      <point x="80" y="-85"/>
      <point x="80" y="-65" type="curve" smooth="yes"/>
      <point x="80" y="-48"/>
      <point x="92" y="-31"/>
      <point x="105" y="-19" type="curve"/>
      <point x="112" y="-12"/>
      <point x="121" y="-5"/>
      <point x="130" y="0" type="curve"/>
      <point x="60" y="0" type="line"/>
      <point x="51" y="-7"/>
      <point x="42" y="-15"/>
      <point x="35" y="-23" type="curve" smooth="yes"/>
      <point x="22" y="-38"/>
      <point x="10" y="-57"/>
      <point x="10" y="-80" type="curve" smooth="yes"/>
      <point x="10" y="-125"/>
      <point x="40" y="-155"/>
    </contour>
  </outline>
</glyph>
<glyph name="hungarumlaut" format="2">
  <advance width="295"/>
  <unicode hex="02DD"/>
  <outline>
    <contour>
      <point x="200" y="550" type="line"/>
      <point x="285" y="700" type="line"/>
      <point x="190" y="700" type="line"/>
      <point x="145" y="550" type="line"/>
    </contour>
    <contour>
      <point x="65" y="550" type="line"/>
      <point x="150" y="700" type="line"/>
      <point x="55" y="700" type="line"/>
      <point x="10" y="550" type="line"/>
    </contour>
  </outline>
</glyph>
<glyph name="strokeshortcomb" format="2">
  <advance width="440"/>
  <unicode hex="0335"/>
  <anchor x="210" y="335" name="_center"/>
  <outline>
    <contour>
      <point x="350" y="300" type="line"/>
      <point x="350" y="370" type="line"/>
      <point x="70" y="370" type="line"/>
      <point x="70" y="300" type="line"/>
    </contour>
  </outline>
</glyph>
<glyph name="A-cy" format="2">
  <advance width="570"/>
  <unicode hex="0410"/>
  <anchor x="285" y="700" name="top"/>
  <outline>
    <contour>
      <point x="115" y="0" type="line"/>
      <point x="170" y="180" type="line"/>
      <point x="400" y="180" type="line"/>
      <point x="455" y="0" type="line"/>
      <point x="555" y="0" type="line"/>
      <point x="350" y="700" type="line"/>
      <point x="220" y="700" type="line"/>
      <point x="15" y="0" type="line"/>
    </contour>
    <contour>
      <point x="270" y="525" type="line" smooth="yes"/>
      <point x="274" y="540"/>
      <point x="277" y="556"/>
      <point x="280" y="571" type="curve"/>
      <point x="283" y="595" type="line"/>
      <point x="287" y="595" type="line"/>
      <point x="290" y="572" type="line"/>
      <point x="293" y="557"/>
      <point x="295" y="540"/>
      <point x="300" y="525" type="curve"/>
      <point x="380" y="250" type="line"/>
      <point x="190" y="250" type="line"/>
    </contour>
  </outline>
</glyph>
<glyph name="Ge-cy" format="2">
  <advance width="490"/>
  <unicode hex="0413"/>
  <anchor x="90" y="0" name="bottomright"/>
  <anchor x="167" y="350" name="center"/>
  <anchor x="305" y="700" name="top"/>
  <outline>
    <contour>
      <point x="190" y="0" type="line"/>
      <point x="190" y="630" type="line"/>
      <point x="480" y="630" type="line"/>
      <point x="480" y="700" type="line"/>
      <point x="90" y="700" type="line"/>
      <point x="90" y="0" type="line"/>
    </contour>
  </outline>
</glyph>
<glyph name="De-cy" format="2">
  <advance width="620"/>
  <unicode hex="0414"/>
  <outline>
    <contour>
      <point x="95" y="-150" type="line"/>
      <point x="110" y="0" type="line"/>
      <point x="485" y="0" type="line"/>
      <point x="500" y="-150" type="line"/>
      <point x="580" y="-150" type="line"/>
      <point x="580" y="70" type="line"/>
      <point x="515" y="70" type="line"/>
      <point x="515" y="700" type="line"/>
      <point x="140" y="700" type="line"/>
      <point x="115" y="250" type="line" smooth="yes"/>
      <point x="111" y="186"/>
      <point x="98" y="142"/>
      <point x="85" y="113" type="curve"/>
      <point x="78" y="96"/>
      <point x="69" y="81"/>
      <point x="60" y="70" type="curve"/>
      <point x="10" y="70" type="line"/>
      <point x="10" y="-150" type="line"/>
    </contour>
    <contour>
      <point x="160" y="70" type="line"/>
      <point x="169" y="81"/>
      <point x="178" y="96"/>
      <point x="185" y="113" type="curve"/>
      <point x="198" y="142"/>
      <point x="211" y="186"/>
      <point x="215" y="250" type="curve"/>
      <point x="235" y="630" type="line"/>
      <point x="415" y="630" type="line"/>
      <point x="415" y="70" type="line"/>
    </contour>
  </outline>
</glyph>
<glyph name="Ie-cy" format="2">
  <advance width="510"/>
  <unicode hex="0415"/>
  <anchor x="297" y="700" name="top"/>
  <outline>
    <contour>
      <point x="480" y="0" type="line"/>
      <point x="480" y="70" type="line"/>
      <point x="190" y="70" type="line"/>
      <point x="190" y="330" type="line"/>
      <point x="420" y="330" type="line"/>
      <point x="420" y="400" type="line"/>
      <point x="190" y="400" type="line"/>
      <point x="190" y="630" type="line"/>
      <point x="480" y="630" type="line"/>
      <point x="480" y="700" type="line"/>
      <point x="90" y="700" type="line"/>
      <point x="90" y="0" type="line"/>
    </contour>
  </outline>
</glyph>
<glyph name="Ka-cy" format="2">
  <advance width="585"/>
  <unicode hex="041A"/>
  <anchor x="405" y="0" name="bottomright"/>
  <anchor x="293" y="350" name="center"/>
  <anchor x="293" y="700" name="top"/>
  <outline>
    <contour>
      <point x="500" y="-10" type="curve" smooth="yes"/>
      <point x="519" y="-10"/>
      <point x="534" y="-8"/>
      <point x="545" y="-5" type="curve"/>
      <point x="551" y="-4"/>
      <point x="556" y="-2"/>
      <point x="560" y="0" type="curve"/>
      <point x="550" y="65" type="line"/>
      <point x="545" y="65" type="line"/>
      <point x="539" y="62" type="line"/>
      <point x="534" y="61"/>
      <point x="529" y="60"/>
      <point x="525" y="60" type="curve" smooth="yes"/>
      <point x="505" y="60"/>
      <point x="492" y="75"/>
      <point x="485" y="105" type="curve" smooth="yes"/>
      <point x="450" y="265" type="line"/>
      <point x="439" y="308"/>
      <point x="414" y="332"/>
      <point x="390" y="347" type="curve"/>
      <point x="376" y="355"/>
      <point x="361" y="361"/>
      <point x="345" y="365" type="curve"/>
      <point x="362" y="368"/>
      <point x="377" y="373"/>
      <point x="390" y="380" type="curve" smooth="yes"/>
      <point x="413" y="392"/>
      <point x="438" y="415"/>
      <point x="445" y="455" type="curve" smooth="yes"/>
      <point x="470" y="595" type="line" smooth="yes"/>
      <point x="475" y="626"/>
      <point x="490" y="640"/>
      <point x="510" y="640" type="curve" smooth="yes"/>
      <point x="515" y="640"/>
      <point x="520" y="638"/>
      <point x="524" y="637" type="curve"/>
      <point x="527" y="636"/>
      <point x="529" y="636"/>
      <point x="530" y="635" type="curve"/>
      <point x="535" y="635" type="line"/>
      <point x="545" y="700" type="line"/>
      <point x="530" y="705" type="line"/>
      <point x="519" y="708"/>
      <point x="505" y="710"/>
      <point x="485" y="710" type="curve" smooth="yes"/>
      <point x="420" y="710"/>
      <point x="381" y="670"/>
      <point x="370" y="610" type="curve" smooth="yes"/>
      <point x="345" y="470" type="line" smooth="yes"/>
      <point x="337" y="425"/>
      <point x="306" y="395"/>
      <point x="250" y="395" type="curve" smooth="yes"/>
      <point x="190" y="395" type="line"/>
      <point x="190" y="700" type="line"/>
      <point x="90" y="700" type="line"/>
      <point x="90" y="0" type="line"/>
      <point x="190" y="0" type="line"/>
      <point x="190" y="325" type="line"/>
      <point x="260" y="325" type="line" smooth="yes"/>
      <point x="311" y="325"/>
      <point x="339" y="295"/>
      <point x="350" y="250" type="curve"/>
      <point x="385" y="90" type="line" smooth="yes"/>
      <point x="398" y="30"/>
      <point x="435" y="-10"/>
    </contour>
  </outline>
</glyph>
<glyph name="Tse-cy" format="2">
  <advance width="635"/>
  <unicode hex="0426"/>
  <outline>
    <contour>
      <point x="595" y="-150" type="line"/>
      <point x="595" y="70" type="line"/>
      <point x="530" y="70" type="line"/>
      <point x="530" y="700" type="line"/>
      <point x="430" y="700" type="line"/>
      <point x="430" y="70" type="line"/>
      <point x="190" y="70" type="line"/>
      <point x="190" y="700" type="line"/>
      <point x="90" y="700" type="line"/>
      <point x="90" y="0" type="line"/>
      <point x="500" y="0" type="line"/>
      <point x="515" y="-150" type="line"/>
    </contour>
  </outline>
</glyph>
<glyph name="Hardsign-cy" format="2">
  <advance width="620"/>
  <unicode hex="042A"/>
  <outline>
    <contour>
      <point x="340" y="0" type="line" smooth="yes"/>
      <point x="507" y="0"/>
      <point x="585" y="79"/>
      <point x="585" y="220" type="curve" smooth="yes"/>
      <point x="585" y="361"/>
      <point x="507" y="440"/>
      <point x="340" y="440" type="curve" smooth="yes"/>
      <point x="250" y="440" type="line"/>
      <point x="250" y="700" type="line"/>
      <point x="10" y="700" type="line"/>
      <point x="10" y="630" type="line"/>
      <point x="150" y="630" type="line"/>
      <point x="150" y="0" type="line"/>
    </contour>
    <contour>
      <point x="250" y="370" type="line"/>
      <point x="340" y="370" type="line" smooth="yes"/>
      <point x="437" y="370"/>
      <point x="485" y="320"/>
      <point x="485" y="220" type="curve" smooth="yes"/>
      <point x="485" y="120"/>
      <point x="437" y="70"/>
      <point x="340" y="70" type="curve" smooth="yes"/>
      <point x="250" y="70" type="line"/>
    </contour>
  </outline>
</glyph>
<glyph name="en-cy" format="2">
  <advance width="550"/>
  <unicode hex="043D"/>
  <anchor x="375" y="0" name="bottomright"/>
  <outline>
    <contour>
      <point x="175" y="0" type="line"/>
      <point x="175" y="220" type="line"/>
      <point x="375" y="220" type="line"/>
      <point x="375" y="0" type="line"/>
      <point x="475" y="0" type="line"/>
      <point x="475" y="500" type="line"/>
      <point x="375" y="500" type="line"/>
      <point x="375" y="290" type="line"/>
      <point x="175" y="290" type="line"/>
      <point x="175" y="500" type="line"/>
      <point x="75" y="500" type="line"/>
      <point x="75" y="0" type="line"/>
    </contour>
  </outline>
</glyph>
<glyph name="te-cy" format="2">
  <advance width="420"/>
  <unicode hex="0442"/>
  <outline>
    <contour>
      <point x="260" y="0" type="line"/>
      <point x="260" y="430" type="line"/>
      <point x="410" y="430" type="line"/>
      <point x="410" y="500" type="line"/>
      <point x="10" y="500" type="line"/>
      <point x="10" y="430" type="line"/>
      <point x="160" y="430" type="line"/>
      <point x="160" y="0" type="line"/>
    </contour>
  </outline>
</glyph>
<glyph name="che-cy" format="2">
  <advance width="520"/>
  <unicode hex="0447"/>
  <anchor x="345" y="0" name="bottomright"/>
  <anchor x="261" y="211" name="center"/>
  <anchor x="260" y="500" name="top"/>
  <outline>
    <contour>
      <point x="445" y="0" type="line"/>
      <point x="445" y="500" type="line"/>
      <point x="345" y="500" type="line"/>
      <point x="345" y="255" type="line"/>
      <point x="337" y="252"/>
      <point x="328" y="250"/>
      <point x="319" y="247" type="curve"/>
      <point x="303" y="243"/>
      <point x="280" y="240"/>
      <point x="255" y="240" type="curve" smooth="yes"/>
      <point x="195" y="240"/>
      <point x="155" y="279"/>
      <point x="155" y="335" type="curve" smooth="yes"/>
      <point x="155" y="500" type="line"/>
      <point x="55" y="500" type="line"/>
      <point x="55" y="335" type="line" smooth="yes"/>
      <point x="55" y="240"/>
      <point x="125" y="170"/>
      <point x="230" y="170" type="curve" smooth="yes"/>
      <point x="262" y="170"/>
      <point x="291" y="173"/>
      <point x="312" y="177" type="curve"/>
      <point x="324" y="180"/>
      <point x="335" y="182"/>
      <point x="345" y="185" type="curve"/>
      <point x="345" y="0" type="line"/>
    </contour>
  </outline>
</glyph>
<glyph name="hardsign-cy" format="2">
  <advance width="555"/>
  <unicode hex="044A"/>
  <outline>
    <contour>
      <point x="330" y="0" type="line" smooth="yes"/>
      <point x="470" y="0"/>
      <point x="530" y="60"/>
      <point x="530" y="165" type="curve" smooth="yes"/>
      <point x="530" y="270"/>
      <point x="470" y="330"/>
      <point x="330" y="330" type="curve" smooth="yes"/>
      <point x="240" y="330" type="line"/>
      <point x="240" y="500" type="line"/>
      <point x="10" y="500" type="line"/>
      <point x="10" y="430" type="line"/>
      <point x="140" y="430" type="line"/>
      <point x="140" y="0" type="line"/>
    </contour>
    <contour>
      <point x="240" y="260" type="line"/>
      <point x="330" y="260" type="line" smooth="yes"/>
      <point x="401" y="260"/>
      <point x="430" y="230"/>
      <point x="430" y="165" type="curve" smooth="yes"/>
      <point x="430" y="100"/>
      <point x="401" y="70"/>
      <point x="330" y="70" type="curve" smooth="yes"/>
      <point x="240" y="70" type="line"/>
    </contour>
  </outline>
</glyph>
<glyph name="ereversed-cy" format="2">
  <advance width="455"/>
  <unicode hex="044D"/>
  <outline>
    <contour>
      <point x="185" y="-10" type="curve" smooth="yes"/>
      <point x="320" y="-10"/>
      <point x="405" y="75"/>
      <point x="405" y="250" type="curve" smooth="yes"/>
      <point x="405" y="425"/>
      <point x="320" y="510"/>
      <point x="195" y="510" type="curve" smooth="yes"/>
      <point x="144" y="510"/>
      <point x="104" y="497"/>
      <point x="75" y="482" type="curve"/>
      <point x="58" y="474"/>
      <point x="43" y="465"/>
      <point x="30" y="455" type="curve"/>
      <point x="65" y="395" type="line"/>
      <point x="75" y="395" type="line"/>
      <point x="84" y="403"/>
      <point x="95" y="410"/>
      <point x="107" y="417" type="curve" smooth="yes"/>
      <point x="127" y="428"/>
      <point x="154" y="440"/>
      <point x="185" y="440" type="curve" smooth="yes"/>
      <point x="249" y="440"/>
      <point x="293" y="401"/>
      <point x="304" y="290" type="curve"/>
      <point x="124" y="290" type="line"/>
      <point x="124" y="220" type="line"/>
      <point x="304" y="220" type="line"/>
      <point x="299" y="105"/>
      <point x="248" y="60"/>
      <point x="175" y="60" type="curve" smooth="yes"/>
      <point x="144" y="60"/>
      <point x="117" y="71"/>
      <point x="97" y="82" type="curve" smooth="yes"/>
      <point x="85" y="89"/>
      <point x="74" y="96"/>
      <point x="65" y="105" type="curve"/>
      <point x="55" y="105" type="line"/>
      <point x="20" y="45" type="line"/>
      <point x="33" y="34"/>
      <point x="48" y="25"/>
      <point x="65" y="17" type="curve"/>
      <point x="94" y="2"/>
      <point x="134" y="-10"/>
    </contour>
  </outline>
</glyph>
<glyph name="iu-cy" format="2">
  <advance width="715"/>
  <unicode hex="044E"/>
  <outline>
    <contour>
      <point x="460" y="-10" type="curve" smooth="yes"/>
      <point x="580" y="-10"/>
      <point x="665" y="75"/>
      <point x="665" y="250" type="curve" smooth="yes"/>
      <point x="665" y="425"/>
      <point x="580" y="510"/>
      <point x="460" y="510" type="curve" smooth="yes"/>
      <point x="350" y="510"/>
      <point x="266" y="439"/>
      <point x="255" y="290" type="curve"/>
      <point x="175" y="290" type="line"/>
      <point x="175" y="500" type="line"/>
      <point x="75" y="500" type="line"/>
      <point x="75" y="0" type="line"/>
      <point x="175" y="0" type="line"/>
      <point x="175" y="220" type="line"/>
      <point x="255" y="220" type="line"/>
      <point x="266" y="64"/>
      <point x="344" y="-10"/>
    </contour>
    <contour>
      <point x="460" y="60" type="curve" smooth="yes"/>
      <point x="404" y="60"/>
      <point x="355" y="110"/>
      <point x="355" y="250" type="curve" smooth="yes"/>
      <point x="355" y="390"/>
      <point x="404" y="440"/>
      <point x="460" y="440" type="curve" smooth="yes"/>
      <point x="516" y="440"/>
      <point x="565" y="390"/>
      <point x="565" y="250" type="curve" smooth="yes"/>
      <point x="565" y="110"/>
      <point x="516" y="60"/>
    </contour>
  </outline>
</glyph>
<glyph name="ia-cy" format="2">
  <advance width="510"/>
  <unicode hex="044F"/>
  <outline>
    <contour>
      <point x="85" y="-10" type="curve" smooth="yes"/>
      <point x="141" y="-10"/>
      <point x="168" y="19"/>
      <point x="185" y="75" type="curve" smooth="yes"/>
      <point x="205" y="140" type="line" smooth="yes"/>
      <point x="214" y="171"/>
      <point x="234" y="190"/>
      <point x="265" y="190" type="curve" smooth="yes"/>
      <point x="335" y="190" type="line"/>
      <point x="335" y="0" type="line"/>
      <point x="435" y="0" type="line"/>
      <point x="435" y="500" type="line"/>
      <point x="250" y="500" type="line" smooth="yes"/>
      <point x="110" y="500"/>
      <point x="50" y="440"/>
      <point x="50" y="345" type="curve" smooth="yes"/>
      <point x="50" y="286"/>
      <point x="79" y="256"/>
      <point x="110" y="237" type="curve" smooth="yes"/>
      <point x="127" y="226"/>
      <point x="147" y="219"/>
      <point x="170" y="215" type="curve"/>
      <point x="161" y="212"/>
      <point x="152" y="207"/>
      <point x="145" y="202" type="curve" smooth="yes"/>
      <point x="132" y="193"/>
      <point x="117" y="178"/>
      <point x="110" y="155" type="curve" smooth="yes"/>
      <point x="90" y="90" type="line" smooth="yes"/>
      <point x="84" y="70"/>
      <point x="74" y="60"/>
      <point x="60" y="60" type="curve" smooth="yes"/>
      <point x="56" y="60"/>
      <point x="51" y="61"/>
      <point x="46" y="62" type="curve"/>
      <point x="40" y="65" type="line"/>
      <point x="35" y="65" type="line"/>
      <point x="25" y="0" type="line"/>
      <point x="30" y="-2"/>
      <point x="35" y="-4"/>
      <point x="42" y="-5" type="curve"/>
      <point x="54" y="-8"/>
      <point x="68" y="-10"/>
    </contour>
    <contour>
      <point x="250" y="260" type="line" smooth="yes"/>
      <point x="179" y="260"/>
      <point x="150" y="289"/>
      <point x="150" y="345" type="curve" smooth="yes"/>
      <point x="150" y="401"/>
      <point x="179" y="430"/>
      <point x="250" y="430" type="curve" smooth="yes"/>
      <point x="335" y="430" type="line"/>
      <point x="335" y="260" type="line"/>
    </contour>
  </outline>
</glyph>
<glyph name="nje-cy" format="2">
  <advance width="770"/>
  <unicode hex="045A"/>
  <outline>
    <contour>
      <point x="175" y="0" type="line"/>
      <point x="175" y="240" type="line"/>
      <point x="355" y="240" type="line"/>
      <point x="355" y="0" type="line"/>
      <point x="545" y="0" type="line" smooth="yes"/>
      <point x="685" y="0"/>
      <point x="745" y="60"/>
      <point x="745" y="155" type="curve" smooth="yes"/>
      <point x="745" y="250"/>
      <point x="685" y="310"/>
      <point x="545" y="310" type="curve" smooth="yes"/>
      <point x="455" y="310" type="line"/>
      <point x="455" y="500" type="line"/>
      <point x="355" y="500" type="line"/>
      <point x="355" y="310" type="line"/>
      <point x="175" y="310" type="line"/>
      <point x="175" y="500" type="line"/>
      <point x="75" y="500" type="line"/>
      <point x="75" y="0" type="line"/>
    </contour>
    <contour>
      <point x="455" y="240" type="line"/>
      <point x="545" y="240" type="line" smooth="yes"/>
      <point x="616" y="240"/>
      <point x="645" y="211"/>
      <point x="645" y="155" type="curve" smooth="yes"/>
      <point x="645" y="99"/>
      <point x="616" y="70"/>
      <point x="545" y="70" type="curve" smooth="yes"/>
      <point x="455" y="70" type="line"/>
    </contour>
  </outline>
</glyph>
<glyph name="Gheupturn-cy" format="2">
  <advance width="490"/>
  <unicode hex="0490"/>
  <outline>
    <contour>
      <point x="190" y="0" type="line"/>
      <point x="190" y="630" type="line"/>
      <point x="480" y="630" type="line"/>
      <point x="480" y="800" type="line"/>
      <point x="400" y="800" type="line"/>
      <point x="390" y="700" type="line"/>
      <point x="90" y="700" type="line"/>
      <point x="90" y="0" type="line"/>
    </contour>
  </outline>
</glyph>
<glyph name="Zedescender-cy" format="2">
  <advance width="520"/>
  <unicode hex="0498"/>
  <outline>
    <component base="Ze-cy"/>
    <contour>
      <point x="290" y="-150" type="line"/>
      <point x="290" y="0" type="line"/>
      <point x="195" y="0" type="line"/>
      <point x="210" y="-150" type="line"/>
    </contour>
  </outline>
</glyph>
<glyph name="zedescender-cy" format="2">
  <advance width="450"/>
  <unicode hex="0499"/>
  <outline>
    <component base="ze-cy"/>
    <contour>
      <point x="263" y="-140" type="line"/>
      <point x="263" y="0" type="line"/>
      <point x="168" y="0" type="line"/>
      <point x="183" y="-140" type="line"/>
    </contour>
  </outline>
</glyph>
<glyph name="Kadescender-cy" format="2">
  <advance width="585"/>
  <unicode hex="049A"/>
  <outline>
    <component base="Ka-cy"/>
    <contour>
      <point x="560" y="-150" type="line"/>
      <point x="560" y="0" type="line"/>
      <point x="465" y="0" type="line"/>
      <point x="480" y="-150" type="line"/>
    </contour>
  </outline>
</glyph>
<glyph name="Kaverticalstroke-cy" format="2">
  <advance width="615"/>
  <unicode hex="049C"/>
  <outline>
    <component base="verticalbar-cy.case" xOffset="220" yOffset="-17"/>
    <contour>
      <point x="530" y="-10" type="curve" smooth="yes"/>
      <point x="549" y="-10"/>
      <point x="564" y="-9"/>
      <point x="575" y="-5" type="curve"/>
      <point x="581" y="-3"/>
      <point x="586" y="-2"/>
      <point x="590" y="0" type="curve"/>
      <point x="580" y="65" type="line"/>
      <point x="575" y="65" type="line"/>
      <point x="569" y="62" type="line"/>
      <point x="564" y="61"/>
      <point x="559" y="60"/>
      <point x="555" y="60" type="curve" smooth="yes"/>
      <point x="535" y="60"/>
      <point x="522" y="75"/>
      <point x="515" y="105" type="curve" smooth="yes"/>
      <point x="480" y="265" type="line"/>
      <point x="469" y="308"/>
      <point x="444" y="332"/>
      <point x="420" y="347" type="curve" smooth="yes"/>
      <point x="406" y="356"/>
      <point x="391" y="361"/>
      <point x="375" y="365" type="curve"/>
      <point x="392" y="368"/>
      <point x="407" y="373"/>
      <point x="420" y="380" type="curve" smooth="yes"/>
      <point x="443" y="392"/>
      <point x="468" y="415"/>
      <point x="475" y="455" type="curve" smooth="yes"/>
      <point x="500" y="595" type="line" smooth="yes"/>
      <point x="506" y="626"/>
      <point x="520" y="640"/>
      <point x="540" y="640" type="curve" smooth="yes"/>
      <point x="545" y="640"/>
      <point x="550" y="638"/>
      <point x="554" y="637" type="curve"/>
      <point x="557" y="636"/>
      <point x="559" y="636"/>
      <point x="560" y="635" type="curve"/>
      <point x="565" y="635" type="line"/>
      <point x="575" y="700" type="line"/>
      <point x="560" y="705" type="line"/>
      <point x="549" y="709"/>
      <point x="535" y="710"/>
      <point x="515" y="710" type="curve" smooth="yes"/>
      <point x="450" y="710"/>
      <point x="411" y="670"/>
      <point x="400" y="610" type="curve" smooth="yes"/>
      <point x="375" y="470" type="line" smooth="yes"/>
      <point x="367" y="425"/>
      <point x="336" y="395"/>
      <point x="280" y="395" type="curve" smooth="yes"/>
      <point x="190" y="395" type="line"/>
      <point x="190" y="700" type="line"/>
      <point x="90" y="700" type="line"/>
      <point x="90" y="0" type="line"/>
      <point x="190" y="0" type="line"/>
      <point x="190" y="325" type="line"/>
      <point x="290" y="325" type="line" smooth="yes"/>
      <point x="341" y="325"/>
      <point x="369" y="295"/>
      <point x="380" y="250" type="curve"/>
      <point x="415" y="90" type="line" smooth="yes"/>
      <point x="428" y="30"/>
      <point x="465" y="-10"/>
    </contour>
  </outline>
</glyph>
<glyph name="kabashkir-cy" format="2">
  <advance width="595"/>
  <unicode hex="04A1"/>
  <outline>
    <component base="ka-cy" xOffset="85"/>
    <contour>
      <point x="160" y="430" type="line"/>
      <point x="260" y="500" type="line"/>
      <point x="10" y="500" type="line"/>
      <point x="10" y="430" type="line"/>
    </contour>
  </outline>
</glyph>
<glyph name="enghe-cy" format="2">
  <advance width="665"/>
  <unicode hex="04A5"/>
  <outline>
    <component base="en-cy"/>
    <contour>
      <point x="655" y="430" type="line"/>
      <point x="655" y="500" type="line"/>
      <point x="375" y="500" type="line"/>
      <point x="475" y="430" type="line"/>
    </contour>
  </outline>
</glyph>
<glyph name="esdescender-cy" format="2">
  <advance width="455"/>
  <unicode hex="04AB"/>
  <outline>
    <component base="es-cy"/>
    <contour>
      <point x="325" y="-140" type="line"/>
      <point x="325" y="0" type="line"/>
      <point x="230" y="0" type="line"/>
      <point x="245" y="-140" type="line"/>
    </contour>
  </outline>
</glyph>
<glyph name="Schwa-cy" format="2">
  <advance width="594"/>
  <unicode hex="04D8"/>
  <outline>
    <contour>
      <point x="302" y="-10" type="curve" smooth="yes"/>
      <point x="439" y="-10"/>
      <point x="540" y="105"/>
      <point x="539" y="340" type="curve" smooth="yes"/>
      <point x="538" y="602"/>
      <point x="439" y="710"/>
      <point x="285" y="710" type="curve" smooth="yes"/>
      <point x="214" y="710"/>
      <point x="148" y="683"/>
      <point x="80" y="623" type="curve"/>
      <point x="109" y="577" type="line"/>
      <point x="123" y="577" type="line"/>
      <point x="188" y="627"/>
      <point x="234" y="640"/>
      <point x="279" y="640" type="curve" smooth="yes"/>
      <point x="398" y="640"/>
      <point x="438" y="546"/>
      <point x="438" y="366" type="curve" smooth="yes"/>
      <point x="438" y="348" type="line" smooth="yes"/>
      <point x="438" y="145"/>
      <point x="387" y="61"/>
      <point x="302" y="61" type="curve" smooth="yes"/>
      <point x="222" y="61"/>
      <point x="155" y="137"/>
      <point x="155" y="320" type="curve"/>
      <point x="474" y="320" type="line"/>
      <point x="474" y="390" type="line"/>
      <point x="83" y="390" type="line"/>
      <point x="55" y="362" type="line"/>
      <point x="55" y="341" type="line" smooth="yes"/>
      <point x="55" y="102"/>
      <point x="162" y="-10"/>
    </contour>
  </outline>
</glyph>
<glyph name="endash" format="2">
  <advance width="510"/>
  <unicode hex="2013"/>
  <outline>
    <contour>
      <point x="480" y="250" type="line"/>
      <point x="480" y="330" type="line"/>
      <point x="30" y="330" type="line"/>
      <point x="30" y="250" type="line"/>
    </contour>
  </outline>
</glyph>
<glyph name="quoteright" format="2">
  <advance width="200"/>
  <unicode hex="2019"/>
  <outline>
    <contour>
      <point x="70" y="470" type="line"/>
      <point x="87" y="481"/>
      <point x="102" y="495"/>
      <point x="115" y="512" type="curve"/>
      <point x="138" y="540"/>
      <point x="160" y="581"/>
      <point x="160" y="640" type="curve" smooth="yes"/>
      <point x="160" y="685"/>
      <point x="135" y="710"/>
      <point x="95" y="710" type="curve" smooth="yes"/>
      <point x="64" y="710"/>
      <point x="40" y="685"/>
      <point x="40" y="650" type="curve" smooth="yes"/>
      <point x="40" y="615"/>
      <point x="64" y="590"/>
      <point x="95" y="590" type="curve"/>
      <point x="95" y="567"/>
      <point x="82" y="547"/>
      <point x="67" y="531" type="curve"/>
      <point x="59" y="522"/>
      <point x="50" y="513"/>
      <point x="40" y="505" type="curve"/>
    </contour>
  </outline>
</glyph>
<glyph name="quotedblleft" format="2">
  <advance width="360"/>
  <unicode hex="201C"/>
  <outline>
    <contour>
      <point x="265" y="470" type="curve" smooth="yes"/>
      <point x="296" y="470"/>
      <point x="320" y="495"/>
      <point x="320" y="530" type="curve" smooth="yes"/>
      <point x="320" y="565"/>
      <point x="296" y="590"/>
      <point x="265" y="590" type="curve"/>
      <point x="265" y="613"/>
      <point x="277" y="633"/>
      <point x="292" y="649" type="curve"/>
      <point x="300" y="658"/>
      <point x="309" y="667"/>
      <point x="320" y="675" type="curve"/>
      <point x="290" y="710" type="line"/>
      <point x="273" y="699"/>
      <point x="258" y="685"/>
      <point x="245" y="668" type="curve"/>
      <point x="222" y="640"/>
      <point x="200" y="597"/>
      <point x="200" y="540" type="curve" smooth="yes"/>
      <point x="200" y="495"/>
      <point x="225" y="470"/>
    </contour>
    <contour>
      <point x="105" y="470" type="curve" smooth="yes"/>
      <point x="136" y="470"/>
      <point x="160" y="495"/>
      <point x="160" y="530" type="curve" smooth="yes"/>
      <point x="160" y="565"/>
      <point x="136" y="590"/>
      <point x="105" y="590" type="curve"/>
      <point x="105" y="613"/>
      <point x="117" y="633"/>
      <point x="132" y="649" type="curve"/>
      <point x="140" y="658"/>
      <point x="149" y="667"/>
      <point x="160" y="675" type="curve"/>
      <point x="130" y="710" type="line"/>
      <point x="113" y="699"/>
      <point x="98" y="685"/>
      <point x="85" y="668" type="curve"/>
      <point x="62" y="640"/>
      <point x="40" y="597"/>
      <point x="40" y="540" type="curve" smooth="yes"/>
      <point x="40" y="495"/>
      <point x="65" y="470"/>
    </contour>
  </outline>
</glyph>
<glyph name="quotedblright" format="2">
  <advance width="360"/>
  <unicode hex="201D"/>
  <outline>
    <contour>
      <point x="230" y="470" type="line"/>
      <point x="247" y="481"/>
      <point x="262" y="495"/>
      <point x="275" y="512" type="curve"/>
      <point x="298" y="540"/>
      <point x="320" y="581"/>
      <point x="320" y="640" type="curve" smooth="yes"/>
      <point x="320" y="685"/>
      <point x="295" y="710"/>
      <point x="255" y="710" type="curve" smooth="yes"/>
      <point x="224" y="710"/>
      <point x="200" y="685"/>
      <point x="200" y="650" type="curve" smooth="yes"/>
      <point x="200" y="615"/>
      <point x="224" y="590"/>
      <point x="255" y="590" type="curve"/>
      <point x="255" y="567"/>
      <point x="242" y="547"/>
      <point x="227" y="531" type="curve"/>
      <point x="219" y="522"/>
      <point x="210" y="513"/>
      <point x="200" y="505" type="curve"/>
    </contour>
    <contour>
      <point x="70" y="470" type="line"/>
      <point x="87" y="481"/>
      <point x="102" y="495"/>
      <point x="115" y="512" type="curve"/>
      <point x="138" y="540"/>
      <point x="160" y="581"/>
      <point x="160" y="640" type="curve" smooth="yes"/>
      <point x="160" y="685"/>
      <point x="135" y="710"/>
      <point x="95" y="710" type="curve" smooth="yes"/>
      <point x="64" y="710"/>
      <point x="40" y="685"/>
      <point x="40" y="650" type="curve" smooth="yes"/>
      <point x="40" y="615"/>
      <point x="64" y="590"/>
      <point x="95" y="590" type="curve"/>
      <point x="95" y="567"/>
      <point x="82" y="547"/>
      <point x="67" y="531" type="curve"/>
      <point x="59" y="522"/>
      <point x="50" y="513"/>
      <point x="40" y="505" type="curve"/>
    </contour>
  </outline>
</glyph>
<glyph name="quotedblbase" format="2">
  <advance width="360"/>
  <unicode hex="201E"/>
  <outline>
    <contour>
      <point x="230" y="-130" type="line"/>
      <point x="247" y="-119"/>
      <point x="262" y="-105"/>
      <point x="275" y="-88" type="curve"/>
      <point x="298" y="-60"/>
      <point x="320" y="-19"/>
      <point x="320" y="40" type="curve" smooth="yes"/>
      <point x="320" y="85"/>
      <point x="295" y="110"/>
      <point x="255" y="110" type="curve" smooth="yes"/>
      <point x="224" y="110"/>
      <point x="200" y="85"/>
      <point x="200" y="50" type="curve" smooth="yes"/>
      <point x="200" y="15"/>
      <point x="224" y="-10"/>
      <point x="255" y="-10" type="curve"/>
      <point x="255" y="-33"/>
      <point x="242" y="-53"/>
      <point x="227" y="-69" type="curve"/>
      <point x="219" y="-78"/>
      <point x="210" y="-87"/>
      <point x="200" y="-95" type="curve"/>
    </contour>
    <contour>
      <point x="70" y="-130" type="line"/>
      <point x="87" y="-119"/>
      <point x="102" y="-105"/>
      <point x="115" y="-88" type="curve"/>
      <point x="138" y="-60"/>
      <point x="160" y="-19"/>
      <point x="160" y="40" type="curve" smooth="yes"/>
      <point x="160" y="85"/>
      <point x="135" y="110"/>
      <point x="95" y="110" type="curve" smooth="yes"/>
      <point x="64" y="110"/>
      <point x="40" y="85"/>
      <point x="40" y="50" type="curve" smooth="yes"/>
      <point x="40" y="15"/>
      <point x="64" y="-10"/>
      <point x="95" y="-10" type="curve"/>
      <point x="95" y="-33"/>
      <point x="82" y="-53"/>
      <point x="67" y="-69" type="curve"/>
      <point x="59" y="-78"/>
      <point x="50" y="-87"/>
      <point x="40" y="-95" type="curve"/>
    </contour>
  </outline>
</glyph>
<glyph name="guilsinglright" format="2">
  <advance width="340"/>
  <unicode hex="203A"/>
  <outline>
    <contour>
      <point x="130" y="50" type="line"/>
      <point x="320" y="260" type="line"/>
      <point x="130" y="470" type="line"/>
      <point x="10" y="470" type="line"/>
      <point x="200" y="260" type="line"/>
      <point x="10" y="50" type="line"/>
    </contour>
  </outline>
</glyph>
<glyph name="fraction" format="2">
  <advance width="430"/>
  <unicode hex="2044"/>
  <outline>
    <contour>
      <point x="10" y="0" type="line"/>
      <point x="480" y="700" type="line"/>
      <point x="370" y="700" type="line"/>
      <point x="-100" y="0" type="line"/>
    </contour>
  </outline>
</glyph>
<glyph name="tenge" format="2">
  <advance width="480"/>
  <unicode hex="20B8"/>
  <outline>
    <contour>
      <point x="290" y="0" type="line"/>
      <point x="290" y="510" type="line"/>
      <point x="470" y="510" type="line"/>
      <point x="470" y="580" type="line"/>
      <point x="10" y="580" type="line"/>
      <point x="10" y="510" type="line"/>
      <point x="190" y="510" type="line"/>
      <point x="190" y="0" type="line"/>
    </contour>
    <contour>
      <point x="470" y="630" type="line"/>
      <point x="470" y="700" type="line"/>
      <point x="10" y="700" type="line"/>
      <point x="10" y="630" type="line"/>
    </contour>
  </outline>
</glyph>
<glyph name="Decyr.loclBGR" format="2">
  <advance width="650"/>
  <outline>
    <contour>
      <point x="560" y="56" type="line"/>
      <point x="381" y="700" type="line"/>
      <point x="278" y="700" type="line"/>
      <point x="98" y="56" type="line"/>
      <point x="181" y="56" type="line"/>
      <point x="311" y="525" type="line" smooth="yes"/>
      <point x="317" y="548"/>
      <point x="321" y="571"/>
      <point x="324" y="595" type="curve"/>
      <point x="328" y="595" type="line"/>
      <point x="331" y="571"/>
      <point x="335" y="548"/>
      <point x="341" y="525" type="curve" smooth="yes"/>
      <point x="470" y="56" type="line"/>
    </contour>
    <contour>
      <point x="40" y="70" type="line"/>
      <point x="40" y="-150" type="line"/>
      <point x="125" y="-150" type="line"/>
      <point x="140" y="0" type="line"/>
      <point x="515" y="0" type="line"/>
      <point x="530" y="-150" type="line"/>
      <point x="610" y="-150" type="line"/>
      <point x="610" y="70" type="line"/>
    </contour>
  </outline>
</glyph>
<glyph name="Zhecyr.loclBGR" format="2">
  <advance width="830"/>
  <outline>
    <contour>
      <point x="465" y="700" type="line" name="n00"/>
      <point x="365" y="700" type="line" name="n01"/>
      <point x="365" y="370" type="line"/>
      <point x="140" y="700" type="line"/>
      <point x="25" y="700" type="line"/>
      <point x="255" y="360" type="line"/>
      <point x="15" y="0" type="line" name="n06"/>
      <point x="130" y="0" type="line"/>
      <point x="365" y="350" type="line"/>
      <point x="365" y="0" type="line"/>
      <point x="465" y="0" type="line"/>
      <point x="465" y="350" type="line"/>
      <point x="700" y="0" type="line"/>
      <point x="815" y="0" type="line"/>
      <point x="575" y="360" type="line"/>
      <point x="805" y="700" type="line"/>
      <point x="690" y="700" type="line"/>
      <point x="465" y="370" type="line"/>
    </contour>
  </outline>
</glyph>
<glyph name="becyr.loclSRB" format="2">
  <advance width="520"/>
  <outline>
    <contour>
      <point x="260" y="-10" type="curve" smooth="yes"/>
      <point x="385" y="-10"/>
      <point x="470" y="74"/>
      <point x="470" y="230" type="curve" smooth="yes"/>
      <point x="470" y="244" type="line" smooth="yes"/>
      <point x="470" y="367"/>
      <point x="394" y="442"/>
      <point x="333" y="492" type="curve" smooth="yes"/>
      <point x="277" y="538"/>
      <point x="225" y="578"/>
      <point x="225" y="597" type="curve" smooth="yes"/>
      <point x="225" y="617"/>
      <point x="233" y="630"/>
      <point x="305" y="630" type="curve" smooth="yes"/>
      <point x="422" y="630" type="line"/>
      <point x="442" y="715" type="line"/>
      <point x="304" y="715" type="line" smooth="yes"/>
      <point x="197" y="715"/>
      <point x="125" y="682"/>
      <point x="125" y="597" type="curve" smooth="yes"/>
      <point x="125" y="546"/>
      <point x="171" y="513"/>
      <point x="221" y="478" type="curve"/>
      <point x="128" y="441"/>
      <point x="50" y="376"/>
      <point x="50" y="230" type="curve" smooth="yes"/>
      <point x="50" y="74"/>
      <point x="135" y="-10"/>
    </contour>
    <contour>
      <point x="260" y="60" type="curve" smooth="yes"/>
      <point x="200" y="60"/>
      <point x="150" y="110"/>
      <point x="150" y="230" type="curve" smooth="yes"/>
      <point x="150" y="335"/>
      <point x="218" y="393"/>
      <point x="276" y="417" type="curve"/>
      <point x="318" y="387"/>
      <point x="370" y="345"/>
      <point x="370" y="230" type="curve" smooth="yes"/>
      <point x="370" y="110"/>
      <point x="320" y="60"/>
    </contour>
  </outline>
</glyph>
<glyph name="decyr.loclBGR" format="2">
  <advance width="535"/>
  <outline>
    <contour>
      <point x="50" y="250" type="curve" smooth="yes"/>
      <point x="50" y="75"/>
      <point x="135" y="-10"/>
      <point x="250" y="-10" type="curve" smooth="yes"/>
      <point x="285" y="-10"/>
      <point x="329" y="2"/>
      <point x="360" y="20" type="curve"/>
      <point x="360" y="-10" type="line" smooth="yes"/>
      <point x="360" y="-101"/>
      <point x="320" y="-140"/>
      <point x="235" y="-140" type="curve" smooth="yes"/>
      <point x="199" y="-140"/>
      <point x="151" y="-121"/>
      <point x="125" y="-95" type="curve"/>
      <point x="115" y="-95" type="line"/>
      <point x="80" y="-155" type="line"/>
      <point x="124" y="-193"/>
      <point x="188" y="-210"/>
      <point x="245" y="-210" type="curve" smooth="yes"/>
      <point x="380" y="-210"/>
      <point x="460" y="-130"/>
      <point x="460" y="-10" type="curve" smooth="yes"/>
      <point x="460" y="500" type="line"/>
      <point x="390" y="500" type="line"/>
      <point x="380" y="440" type="line"/>
      <point x="375" y="440" type="line"/>
      <point x="343" y="486"/>
      <point x="284" y="510"/>
      <point x="230" y="510" type="curve" smooth="yes"/>
      <point x="135" y="510"/>
      <point x="50" y="425"/>
    </contour>
    <contour>
      <point x="150" y="250" type="curve" smooth="yes"/>
      <point x="150" y="385"/>
      <point x="199" y="435"/>
      <point x="255" y="435" type="curve" smooth="yes"/>
      <point x="297" y="435"/>
      <point x="335" y="406"/>
      <point x="360" y="375" type="curve"/>
      <point x="360" y="80" type="line"/>
      <point x="333" y="67"/>
      <point x="294" y="60"/>
      <point x="265" y="60" type="curve" smooth="yes"/>
      <point x="201" y="60"/>
      <point x="150" y="110"/>
    </contour>
  </outline>
</glyph>
<glyph name="hardcyr.loclBGR" format="2">
  <advance width="555"/>
  <outline>
    <component base="softcyr.loclBGR" xOffset="65"/>
    <contour>
      <point x="240" y="500" type="line"/>
      <point x="10" y="500" type="line"/>
      <point x="10" y="430" type="line"/>
      <point x="240" y="430" type="line"/>
    </contour>
  </outline>
</glyph>
<glyph name="shacyr.loclBGR" format="2">
  <advance width="805"/>
  <outline>
    <contour>
      <point x="70" y="160" type="line" smooth="yes"/>
      <point x="70" y="60"/>
      <point x="140" y="-10"/>
      <point x="229" y="-10" type="curve" smooth="yes"/>
      <point x="286" y="-10"/>
      <point x="342" y="19"/>
      <point x="380" y="60" type="curve"/>
      <point x="405" y="14"/>
      <point x="459" y="-10"/>
      <point x="510" y="-10" type="curve" smooth="yes"/>
      <point x="565" y="-10"/>
      <point x="611" y="19"/>
      <point x="645" y="60" type="curve"/>
      <point x="650" y="60" type="line"/>
      <point x="660" y="0" type="line"/>
      <point x="730" y="0" type="line"/>
      <point x="730" y="500" type="line"/>
      <point x="630" y="500" type="line"/>
      <point x="630" y="125" type="line"/>
      <point x="607" y="97"/>
      <point x="572" y="65"/>
      <point x="533" y="65" type="curve" smooth="yes"/>
      <point x="490" y="65"/>
      <point x="450" y="104"/>
      <point x="450" y="160" type="curve" smooth="yes"/>
      <point x="450" y="500" type="line"/>
      <point x="350" y="500" type="line"/>
      <point x="350" y="115" type="line"/>
      <point x="325" y="90"/>
      <point x="291" y="65"/>
      <point x="255" y="65" type="curve" smooth="yes"/>
      <point x="210" y="65"/>
      <point x="170" y="104"/>
      <point x="170" y="160" type="curve" smooth="yes"/>
      <point x="170" y="500" type="line"/>
      <point x="70" y="500" type="line"/>
    </contour>
  </outline>
</glyph>
<glyph name="vecyr.loclBGR" format="2">
  <advance width="520"/>
  <outline>
    <contour>
      <point x="55" y="214" type="line" smooth="yes"/>
      <point x="55" y="36"/>
      <point x="167" y="-10"/>
      <point x="260" y="-10" type="curve" smooth="yes"/>
      <point x="400" y="-10"/>
      <point x="470" y="95"/>
      <point x="470" y="212" type="curve" smooth="yes"/>
      <point x="470" y="298"/>
      <point x="432" y="365"/>
      <point x="355" y="390" type="curve"/>
      <point x="421" y="425"/>
      <point x="445" y="481"/>
      <point x="445" y="540" type="curve" smooth="yes"/>
      <point x="445" y="639"/>
      <point x="374" y="715"/>
      <point x="253" y="715" type="curve" smooth="yes"/>
      <point x="88" y="715"/>
      <point x="55" y="573"/>
      <point x="55" y="519" type="curve" smooth="yes"/>
    </contour>
    <contour>
      <point x="155" y="385" type="curve"/>
      <point x="155" y="541" type="line" smooth="yes"/>
      <point x="155" y="607"/>
      <point x="193" y="650"/>
      <point x="257" y="650" type="curve" smooth="yes"/>
      <point x="307" y="650"/>
      <point x="350" y="623"/>
      <point x="350" y="539" type="curve" smooth="yes"/>
      <point x="350" y="470"/>
      <point x="321" y="421"/>
      <point x="270" y="415" type="curve" smooth="yes"/>
      <point x="233" y="411"/>
      <point x="192" y="400"/>
    </contour>
    <contour>
      <point x="155" y="295" type="line"/>
      <point x="173" y="316"/>
      <point x="218" y="350"/>
      <point x="270" y="350" type="curve" smooth="yes"/>
      <point x="341" y="350"/>
      <point x="370" y="285"/>
      <point x="370" y="203" type="curve" smooth="yes"/>
      <point x="370" y="115"/>
      <point x="336" y="55"/>
      <point x="262" y="55" type="curve" smooth="yes"/>
      <point x="196" y="55"/>
      <point x="155" y="103"/>
      <point x="155" y="186" type="curve" smooth="yes"/>
    </contour>
  </outline>
</glyph>
<glyph name="verticalbar-cy.case" format="2">
  <advance width="145"/>
  <anchor x="73" y="367" name="_center"/>
  <outline>
    <contour>
      <point x="95" y="227" type="line"/>
      <point x="95" y="507" type="line"/>
      <point x="50" y="507" type="line"/>
      <point x="50" y="227" type="line"/>
    </contour>
  </outline>
</glyph>
<glyph name="zecyr.loclBGR" format="2">
  <advance width="460"/>
  <outline>
    <contour>
      <point x="15" y="-155" type="line"/>
      <point x="59" y="-192"/>
      <point x="129" y="-210"/>
      <point x="192" y="-210" type="curve" smooth="yes"/>
      <point x="361" y="-210"/>
      <point x="415" y="-81"/>
      <point x="415" y="17" type="curve" smooth="yes"/>
      <point x="415" y="113"/>
      <point x="363" y="183"/>
      <point x="290" y="200" type="curve"/>
      <point x="358" y="219"/>
      <point x="395" y="279"/>
      <point x="395" y="345" type="curve" smooth="yes"/>
      <point x="395" y="430"/>
      <point x="335" y="510"/>
      <point x="203" y="510" type="curve" smooth="yes"/>
      <point x="142" y="510"/>
      <point x="76" y="493"/>
      <point x="30" y="455" type="curve"/>
      <point x="65" y="395" type="line"/>
      <point x="75" y="395" type="line"/>
      <point x="106" y="422"/>
      <point x="149" y="440"/>
      <point x="196" y="440" type="curve" smooth="yes"/>
      <point x="266" y="440"/>
      <point x="295" y="400"/>
      <point x="295" y="335" type="curve" smooth="yes"/>
      <point x="295" y="290"/>
      <point x="265" y="230"/>
      <point x="205" y="230" type="curve" smooth="yes"/>
      <point x="120" y="230" type="line"/>
      <point x="120" y="160" type="line"/>
      <point x="205" y="160" type="line" smooth="yes"/>
      <point x="276" y="160"/>
      <point x="315" y="93"/>
      <point x="315" y="15" type="curve" smooth="yes"/>
      <point x="315" y="-48"/>
      <point x="290" y="-140"/>
      <point x="175" y="-140" type="curve" smooth="yes"/>
      <point x="138" y="-140"/>
      <point x="88" y="-120"/>
      <point x="60" y="-95" type="curve"/>
      <point x="50" y="-95" type="line"/>
    </contour>
  </outline>
</glyph>
<glyph name="zhecyr.loclBGR" format="2">
  <advance width="710"/>
  <outline>
    <contour>
      <point x="10" y="0" type="line"/>
      <point x="125" y="0" type="line"/>
      <point x="305" y="250" type="line"/>
      <point x="305" y="0" type="line"/>
      <point x="405" y="0" type="line"/>
      <point x="405" y="250" type="line"/>
      <point x="585" y="0" type="line"/>
      <point x="700" y="0" type="line"/>
      <point x="510" y="260" type="line"/>
      <point x="690" y="500" type="line"/>
      <point x="575" y="500" type="line"/>
      <point x="405" y="270" type="line"/>
      <point x="405" y="700" type="line"/>
      <point x="335" y="700" type="line"/>
      <point x="305" y="670" type="line"/>
      <point x="305" y="270" type="line"/>
      <point x="135" y="500" type="line"/>
      <point x="20" y="500" type="line"/>
      <point x="200" y="260" type="line"/>
    </contour>
  </outline>
</glyph>
